<svg width="38" height="25" viewBox="0 0 38 25" fill="none" xmlns="http://www.w3.org/2000/svg">
<g opacity="0.34">
<path d="M32.429 24.7374C32.1286 24.737 31.8345 24.6534 31.581 24.4963C31.3275 24.3392 31.125 24.1151 30.9971 23.8501C30.8692 23.5851 30.8213 23.2902 30.8588 22.9997C30.8963 22.7092 31.0178 22.435 31.209 22.2092C33.5355 19.436 34.8065 15.964 34.8065 12.3818C34.8065 8.79953 33.5355 5.32751 31.209 2.55431C31.0765 2.39784 30.9768 2.21745 30.9158 2.02345C30.8547 1.82944 30.8335 1.62561 30.8533 1.4236C30.8731 1.2216 30.9335 1.02537 31.0311 0.846112C31.1286 0.666859 31.2615 0.508095 31.422 0.378886C31.5826 0.249676 31.7677 0.152552 31.9667 0.0930572C32.1658 0.0335625 32.3749 0.0128628 32.5822 0.0321403C32.7894 0.0514179 32.9907 0.110295 33.1747 0.20541C33.3586 0.300525 33.5215 0.430015 33.654 0.586487C36.4446 3.91503 37.969 8.08136 37.969 12.3798C37.969 16.6783 36.4446 20.8446 33.654 24.1731C33.5053 24.3496 33.3183 24.4917 33.1065 24.5893C32.8947 24.6869 32.6633 24.7375 32.429 24.7374ZM6.54704 24.3846C6.70771 24.2555 6.84069 24.0968 6.9384 23.9176C7.03612 23.7384 7.09664 23.5422 7.11651 23.3401C7.13638 23.1381 7.11522 22.9342 7.05423 22.7402C6.99323 22.5461 6.89361 22.3657 6.76104 22.2092C4.43454 19.436 3.16355 15.964 3.16355 12.3818C3.16355 8.79953 4.43454 5.32751 6.76104 2.55431C6.9007 2.39887 7.00694 2.21771 7.07348 2.02154C7.14003 1.82537 7.16552 1.61818 7.14846 1.41224C7.13139 1.2063 7.07211 1.00579 6.97413 0.822569C6.87615 0.639351 6.74146 0.477151 6.57802 0.345569C6.41458 0.213986 6.22572 0.115694 6.02262 0.0565105C5.81952 -0.00267337 5.6063 -0.0215466 5.39558 0.00100734C5.18486 0.0235613 4.98093 0.0870844 4.79584 0.187817C4.61076 0.28855 4.44829 0.424446 4.31804 0.587462C1.52678 3.91569 0.00195313 8.08214 0.00195312 12.3808C0.00195313 16.6794 1.52678 20.8459 4.31804 24.1741C4.5858 24.4895 4.97105 24.6884 5.38918 24.7271C5.8073 24.7659 6.2241 24.6413 6.54804 24.3807L6.54704 24.3846ZM31.662 12.3818C31.6583 15.6583 30.321 18.7995 27.9435 21.1159C25.5661 23.4324 22.3427 24.7349 18.981 24.7374C2.20704 24.1575 2.21204 0.604031 18.981 0.0260609C22.3427 0.0286407 25.5661 1.3311 27.9435 3.64757C30.321 5.96404 31.6583 9.10526 31.662 12.3818ZM20.57 18.5601C20.5702 18.2547 20.4776 17.9561 20.3037 17.702C20.1298 17.4479 19.8826 17.2497 19.5932 17.1325C19.3038 17.0153 18.9853 16.9844 18.6779 17.0436C18.3705 17.1028 18.088 17.2494 17.866 17.465C17.6441 17.6807 17.4928 17.9556 17.4311 18.255C17.3694 18.5544 17.4001 18.865 17.5195 19.1474C17.6388 19.4298 17.8413 19.6714 18.1015 19.8416C18.3616 20.0119 18.6677 20.1032 18.981 20.1039C19.1894 20.1045 19.3959 20.0649 19.5886 19.9876C19.7813 19.9102 19.9564 19.7966 20.104 19.6532C20.2516 19.5098 20.3688 19.3394 20.4487 19.1519C20.5287 18.9643 20.5699 18.7632 20.57 18.5601ZM20.57 6.20439C20.5754 5.99832 20.5383 5.7933 20.4611 5.60141C20.3838 5.40951 20.268 5.23462 20.1203 5.08704C19.9726 4.93946 19.7962 4.82218 19.6013 4.7421C19.4064 4.66202 19.197 4.62077 18.9855 4.62077C18.774 4.62077 18.5647 4.66202 18.3698 4.7421C18.1749 4.82218 17.9985 4.93946 17.8508 5.08704C17.7031 5.23462 17.5873 5.40951 17.51 5.60141C17.4328 5.7933 17.3957 5.99832 17.401 6.20439V12.3827C17.3957 12.5888 17.4328 12.7938 17.51 12.9857C17.5873 13.1776 17.7031 13.3525 17.8508 13.5001C17.9985 13.6477 18.1749 13.7649 18.3698 13.845C18.5647 13.9251 18.774 13.9664 18.9855 13.9664C19.197 13.9664 19.4064 13.9251 19.6013 13.845C19.7962 13.7649 19.9726 13.6477 20.1203 13.5001C20.268 13.3525 20.3838 13.1776 20.4611 12.9857C20.5383 12.7938 20.5754 12.5888 20.57 12.3827V6.20439Z" fill="#4B4B4B"/>
</g>
</svg>
