<svg width="15" height="15" viewBox="0 0 15 15" fill="none" xmlns="http://www.w3.org/2000/svg">
<path d="M2.00497 2.20679V5.54098H5.42596V2.20679H2.00497ZM1.32095 0.873299H6.10995C6.19986 0.873299 6.2889 0.890657 6.37195 0.924221C6.455 0.957784 6.53044 1.00689 6.59396 1.0689C6.65749 1.1309 6.70787 1.20444 6.74219 1.28543C6.7765 1.36643 6.79411 1.45336 6.79398 1.54099V6.20963C6.79398 6.38644 6.7219 6.55575 6.59363 6.68077C6.46535 6.8058 6.29136 6.87637 6.10995 6.87637H1.32095C1.13955 6.87637 0.965586 6.8058 0.837311 6.68077C0.709036 6.55575 0.636963 6.38644 0.636963 6.20963V1.54099C0.637227 1.36426 0.709368 1.19482 0.837585 1.06985C0.965803 0.94488 1.13963 0.873556 1.32095 0.873299Z" fill="#2D023D"/>
<path d="M9.53098 2.20679V5.54098H12.952V2.20679H9.53098ZM8.84695 0.873299H13.636C13.7259 0.873299 13.8149 0.890657 13.8979 0.924221C13.981 0.957784 14.0564 1.00689 14.12 1.0689C14.1835 1.1309 14.2339 1.20444 14.2682 1.28543C14.3025 1.36643 14.3201 1.45336 14.32 1.54099V6.20963C14.32 6.38644 14.2479 6.55575 14.1196 6.68077C13.9914 6.8058 13.8174 6.87637 13.636 6.87637H8.84695C8.66555 6.87637 8.49159 6.8058 8.36331 6.68077C8.23504 6.55575 8.16296 6.38644 8.16296 6.20963V1.54099C8.16296 1.36418 8.23504 1.1944 8.36331 1.06937C8.49159 0.944348 8.66555 0.873299 8.84695 0.873299Z" fill="#2D023D"/>
<path d="M9.53098 9.54204V12.8762H12.952V9.54204H9.53098ZM8.84696 8.20855H13.636C13.7258 8.20855 13.8147 8.22597 13.8977 8.25947C13.9807 8.29297 14.0561 8.34177 14.1196 8.40367C14.1831 8.46558 14.2335 8.53932 14.2679 8.62021C14.3023 8.70109 14.32 8.78775 14.32 8.87529V13.543C14.3201 13.6306 14.3025 13.7171 14.2682 13.7981C14.2339 13.8791 14.1835 13.9531 14.12 14.0151C14.0564 14.0771 13.981 14.1262 13.898 14.1597C13.8149 14.1933 13.7259 14.2107 13.636 14.2107H8.84696C8.75705 14.2107 8.66804 14.1933 8.58499 14.1597C8.50194 14.1262 8.42647 14.0771 8.36295 14.0151C8.29942 13.9531 8.24907 13.8791 8.21475 13.7981C8.18044 13.7171 8.16283 13.6306 8.16296 13.543V8.87529C8.16323 8.69865 8.2354 8.52944 8.36365 8.40462C8.49189 8.27981 8.66572 8.20855 8.84696 8.20855Z" fill="#2D023D"/>
<path d="M2.00497 9.54204V12.8762H5.42596V9.54204H2.00497ZM1.32095 8.20855H6.10995C6.19978 8.20855 6.28872 8.22597 6.3717 8.25947C6.45469 8.29297 6.53011 8.34177 6.59363 8.40367C6.65714 8.46558 6.70751 8.53932 6.74188 8.62021C6.77626 8.70109 6.79398 8.78775 6.79398 8.87529V13.543C6.79411 13.6306 6.7765 13.7171 6.74219 13.7981C6.70787 13.8791 6.65749 13.9531 6.59396 14.0151C6.53044 14.0771 6.455 14.1262 6.37195 14.1597C6.2889 14.1933 6.19986 14.2107 6.10995 14.2107H1.32095C1.13945 14.2104 0.965496 14.1398 0.83725 14.0146C0.709004 13.8894 0.636963 13.7199 0.636963 13.543V8.87529C0.637228 8.69865 0.7094 8.52944 0.837646 8.40462C0.965893 8.27981 1.13972 8.20855 1.32095 8.20855Z" fill="#2D023D"/>
</svg>
