<svg width="14" height="14" viewBox="0 0 14 14" fill="none" xmlns="http://www.w3.org/2000/svg">
<path d="M10.65 6.92881L11.05 7.72119L11.95 7.8479L11.301 8.46485L11.454 9.33619L10.654 8.92489L9.85397 9.33619L10.007 8.46485L9.35797 7.8479L10.258 7.72119L10.65 6.92881Z" fill="#5AD681"/>
<path d="M2.495 5.03798L2.895 5.83037L3.795 5.95707L3.146 6.57403L3.299 7.44537L2.499 7.03407L1.699 7.44537L1.852 6.57403L1.203 5.95707L2.103 5.83037L2.495 5.03798Z" fill="#5AD681"/>
<path d="M5.68701 1.73584C5.56974 1.74461 5.45199 1.72683 5.34293 1.68391C5.23388 1.64098 5.13649 1.57406 5.05836 1.48838C4.98023 1.4027 4.92348 1.30058 4.89254 1.18999C4.8616 1.0794 4.8573 0.963331 4.88 0.850857H5.68701L5.72901 1.27776L5.68701 1.73584Z" fill="#5AD681"/>
<path d="M7.54105 1.73584C7.65831 1.74461 7.77605 1.72683 7.8851 1.68391C7.99415 1.64098 8.09155 1.57406 8.16968 1.48838C8.24781 1.4027 8.30457 1.30058 8.33551 1.18999C8.36645 1.0794 8.37072 0.963331 8.34802 0.850857H7.54105L7.49902 1.27776L7.54105 1.73584Z" fill="#5AD681"/>
<path d="M6.614 4.11108C6.58848 4.1112 6.56319 4.1064 6.53959 4.09695C6.516 4.08749 6.49455 4.07357 6.47651 4.05598C6.45847 4.0384 6.44419 4.0175 6.43449 3.9945C6.42479 3.9715 6.41986 3.94686 6.41999 3.92199V3.0448C6.41808 3.0189 6.42167 2.99289 6.43052 2.96839C6.43938 2.94389 6.45332 2.92144 6.47148 2.90242C6.48963 2.88341 6.5116 2.86824 6.53604 2.85788C6.56047 2.84751 6.58684 2.84216 6.61349 2.84216C6.64014 2.84216 6.6665 2.84751 6.69093 2.85788C6.71536 2.86824 6.73735 2.88341 6.75551 2.90242C6.77366 2.92144 6.7876 2.94389 6.79646 2.96839C6.80532 2.99289 6.8089 3.0189 6.80699 3.0448V3.92199C6.80699 3.97197 6.78668 4.01992 6.75052 4.05535C6.71435 4.09078 6.66527 4.11082 6.614 4.11108Z" fill="#5AD681"/>
<path d="M5.68604 0.850857V2.14325C5.68604 2.38313 5.78381 2.61319 5.95784 2.78281C6.13187 2.95243 6.36791 3.04773 6.61403 3.04773C6.86015 3.04773 7.0962 2.95243 7.27023 2.78281C7.44427 2.61319 7.54204 2.38313 7.54204 2.14325V0.850857H5.68604Z" fill="#5AD681"/>
<path d="M5.66504 4.8372C5.66504 4.59473 5.76386 4.36219 5.93977 4.19074C6.11568 4.01929 6.35425 3.92297 6.60303 3.92297C6.8518 3.92297 7.09039 4.01929 7.2663 4.19074C7.44221 4.36219 7.54103 4.59473 7.54103 4.8372H5.66504Z" fill="#5AD681"/>
<path d="M7.99496 4.64811H5.21597C5.18939 4.64625 5.16271 4.64974 5.13757 4.65837C5.11244 4.667 5.08939 4.68059 5.06989 4.69829C5.05038 4.71598 5.03482 4.73741 5.02419 4.76123C5.01355 4.78504 5.00806 4.81073 5.00806 4.8367C5.00806 4.86267 5.01355 4.88838 5.02419 4.91219C5.03482 4.93601 5.05038 4.95742 5.06989 4.97512C5.08939 4.99281 5.11244 5.0064 5.13757 5.01503C5.16271 5.02367 5.18939 5.02716 5.21597 5.02529H7.99496C8.02155 5.02716 8.04825 5.02367 8.07338 5.01503C8.09851 5.0064 8.12154 4.99281 8.14105 4.97512C8.16056 4.95742 8.17613 4.93601 8.18677 4.91219C8.19741 4.88838 8.2029 4.86267 8.2029 4.8367C8.2029 4.81073 8.19741 4.78504 8.18677 4.76123C8.17613 4.73741 8.16056 4.71598 8.14105 4.69829C8.12154 4.68059 8.09851 4.667 8.07338 4.65837C8.04825 4.64974 8.02155 4.64625 7.99496 4.64811Z" fill="#5AD681"/>
<path d="M8.56195 13.3764H4.62396V6.26725C4.62396 6.1897 4.65556 6.11533 4.71182 6.06049C4.76808 6.00566 4.84439 5.97485 4.92395 5.97485H8.25395C8.33352 5.97485 8.40983 6.00566 8.46609 6.06049C8.52236 6.11533 8.55396 6.1897 8.55396 6.26725L8.56195 13.3764Z" fill="#5AD681"/>
<path d="M8.25793 5.97071H7.22595C7.30552 5.97071 7.38182 6.00153 7.43808 6.05636C7.49434 6.1112 7.52594 6.18557 7.52594 6.26311V13.3722H8.55795V6.26311C8.55795 6.18557 8.52635 6.1112 8.47009 6.05636C8.41383 6.00153 8.3375 5.97071 8.25793 5.97071Z" fill="#5AD681"/>
<path d="M12.527 13.3761H8.58899V10.7153C8.58899 10.6378 8.62059 10.5634 8.67685 10.5086C8.73311 10.4538 8.80941 10.4229 8.88898 10.4229H12.219C12.2986 10.4229 12.3749 10.4538 12.4311 10.5086C12.4874 10.5634 12.519 10.6378 12.519 10.7153V13.3761H12.527Z" fill="#5AD681"/>
<path d="M12.223 10.419H11.191C11.2705 10.419 11.3468 10.4499 11.4031 10.5047C11.4594 10.5595 11.491 10.6339 11.491 10.7114V13.3722H12.523V10.7114C12.523 10.6339 12.4914 10.5595 12.4351 10.5047C12.3788 10.4499 12.3025 10.419 12.223 10.419Z" fill="#5AD681"/>
<path d="M4.62397 13.3762H0.685974V8.74458C0.685974 8.70618 0.693734 8.66816 0.708811 8.63268C0.723887 8.59721 0.745984 8.56498 0.773842 8.53783C0.801699 8.51068 0.83477 8.48914 0.871168 8.47444C0.907566 8.45975 0.946577 8.45219 0.985973 8.45219H4.31597C4.35537 8.45219 4.39438 8.45975 4.43078 8.47444C4.46718 8.48914 4.50025 8.51068 4.52811 8.53783C4.55596 8.56498 4.57806 8.59721 4.59314 8.63268C4.60821 8.66816 4.61597 8.70618 4.61597 8.74458V13.3762H4.62397Z" fill="#5AD681"/>
<path d="M4.31996 8.4483H3.28796C3.36753 8.4483 3.44384 8.47909 3.5001 8.53393C3.55636 8.58876 3.58797 8.66313 3.58797 8.74068V13.3723H4.61996V8.74068C4.61996 8.66313 4.58837 8.58876 4.5321 8.53393C4.47584 8.47909 4.39953 8.4483 4.31996 8.4483Z" fill="#5AD681"/>
<path d="M13.02 13.188H0.193997C0.145081 13.1914 0.0993123 13.2128 0.0659013 13.2478C0.0324902 13.2828 0.013916 13.3288 0.013916 13.3766C0.013916 13.4244 0.0324902 13.4705 0.0659013 13.5054C0.0993123 13.5404 0.145081 13.5618 0.193997 13.5652H13.02C13.0689 13.5618 13.1147 13.5404 13.1481 13.5054C13.1815 13.4705 13.2001 13.4244 13.2001 13.3766C13.2001 13.3288 13.1815 13.2828 13.1481 13.2478C13.1147 13.2128 13.0689 13.1914 13.02 13.188Z" fill="#5AD681"/>
</svg>
