<svg width="25" height="25" viewBox="0 0 25 25" fill="none" xmlns="http://www.w3.org/2000/svg">
<path opacity="0.34" d="M12.464 0.518265C9.99884 0.518072 7.58896 1.23038 5.53913 2.56511C3.4893 3.89985 1.89161 5.79705 0.948081 8.01681C0.00455743 10.2366 -0.242414 12.6792 0.238399 15.0357C0.719213 17.3923 1.90621 19.557 3.6493 21.256C5.39238 22.9551 7.61325 24.1121 10.0311 24.581C12.4489 25.0498 14.955 24.8093 17.2326 23.8898C19.5101 22.9704 21.4568 21.4133 22.8264 19.4156C24.196 17.4178 24.927 15.0691 24.927 12.6664C24.9262 9.44489 23.6129 6.35557 21.2759 4.07756C18.9388 1.79955 15.7693 0.519298 12.464 0.518265ZM12.075 19.7521C11.8179 19.7521 11.5666 19.6778 11.3528 19.5386C11.139 19.3993 10.9724 19.2014 10.874 18.9699C10.7756 18.7384 10.7498 18.4836 10.8 18.2379C10.8502 17.9921 10.974 17.7663 11.1558 17.5891C11.3376 17.4119 11.5692 17.2912 11.8214 17.2423C12.0736 17.1935 12.335 17.2185 12.5725 17.3144C12.8101 17.4103 13.0131 17.5727 13.1559 17.7811C13.2988 17.9895 13.375 18.2344 13.375 18.485C13.375 18.6515 13.3414 18.8164 13.276 18.9701C13.2106 19.1239 13.1147 19.2637 12.9939 19.3813C12.8731 19.499 12.7297 19.5923 12.5718 19.6559C12.414 19.7195 12.2448 19.7522 12.074 19.7521H12.075ZM14.246 13.2989C13.8836 13.4738 13.5789 13.7444 13.3667 14.08C13.1546 14.4155 13.0434 14.8024 13.046 15.1966C13.046 15.4315 12.9503 15.6569 12.7798 15.823C12.6093 15.9892 12.3781 16.0825 12.137 16.0825C11.8959 16.0825 11.6647 15.9892 11.4943 15.823C11.3238 15.6569 11.228 15.4315 11.228 15.1966C11.2287 14.5133 11.4138 13.8422 11.7649 13.2507C12.116 12.6593 12.6206 12.1683 13.228 11.8272C14.48 11.0085 15.187 10.49 15.187 9.34863C15.1706 8.94503 15.0276 8.55606 14.7772 8.23416C14.5269 7.91226 14.1813 7.67293 13.787 7.54845C13.3645 7.39931 12.9159 7.33306 12.467 7.35352C11.8186 7.32771 11.1807 7.5197 10.66 7.89737C10.1747 8.23548 9.84138 8.74252 9.72903 9.31355C9.71736 9.54852 9.6104 9.76935 9.43168 9.92745C9.25295 10.0856 9.01711 10.168 8.77603 10.1566C8.53495 10.1452 8.30838 10.041 8.14616 9.86681C7.98394 9.69261 7.89936 9.46275 7.91103 9.22778C7.97445 8.69318 8.14991 8.17698 8.42652 7.71121C8.70313 7.24545 9.07499 6.84006 9.51903 6.52019C10.3575 5.89175 11.3916 5.56222 12.449 5.58647C13.1759 5.55988 13.9002 5.68551 14.573 5.95489C15.2791 6.22134 15.8878 6.68671 16.3215 7.29165C16.7551 7.89659 16.9942 8.6137 17.008 9.35156C17.008 11.489 15.541 12.45 14.246 13.2989Z" fill="#4B4B4B"/>
</svg>
