<svg width="14" height="8" viewBox="0 0 14 8" fill="none" xmlns="http://www.w3.org/2000/svg">
<path d="M7.00095 3.1364C6.71787 2.35604 6.16087 1.69834 5.42837 1.27953C4.69588 0.860732 3.83506 0.707799 2.99807 0.847764C2.16107 0.98773 1.40179 1.41158 0.854422 2.04441C0.307052 2.67723 0.00683594 3.47829 0.00683594 4.30599C0.00683594 5.13369 0.307052 5.93474 0.854422 6.56757C1.40179 7.2004 2.16107 7.62425 2.99807 7.76421C3.83506 7.90418 4.69588 7.75125 5.42837 7.33244C6.16087 6.91364 6.71787 6.25594 7.00095 5.47557H9.61395V7.81474H12.0139V5.47557H13.2139V3.1364H7.00095ZM3.60095 5.47557C3.36361 5.47557 3.1316 5.40698 2.93426 5.27846C2.73693 5.14995 2.58312 4.96728 2.49229 4.75357C2.40147 4.53986 2.3777 4.30469 2.42401 4.07781C2.47031 3.85094 2.5846 3.64254 2.75242 3.47897C2.92024 3.3154 3.13406 3.20401 3.36684 3.15888C3.59962 3.11375 3.8409 3.13691 4.06017 3.22543C4.27944 3.31396 4.46685 3.46386 4.59871 3.6562C4.73057 3.84854 4.80095 4.07467 4.80095 4.30599C4.80095 4.61618 4.67452 4.91367 4.44948 5.13301C4.22443 5.35235 3.91921 5.47557 3.60095 5.47557Z" fill="#2D023D"/>
</svg>
