<svg width="31" height="31" viewBox="0 0 31 31" fill="none" xmlns="http://www.w3.org/2000/svg">
<g opacity="0.34">
<path d="M27.3991 21.4997C29.6985 19.1808 30.9713 16.0745 30.9433 12.8497C30.9154 9.625 29.5889 6.54002 27.2496 4.2594C24.9103 1.97877 21.7455 0.685024 18.4369 0.656875C15.1284 0.628727 11.9408 1.86843 9.56106 4.10891C7.57691 6.0133 6.30997 8.51441 5.96517 11.2077C5.62037 13.9009 6.21789 16.6288 7.66106 18.95C7.71877 19.0466 7.74285 19.1588 7.72969 19.2698C7.71653 19.3808 7.66684 19.4847 7.58806 19.566L1.15306 25.8408C-0.127939 27.0893 -0.432939 28.8349 0.699061 29.9431L0.899061 30.138C2.03506 31.2452 3.82706 30.948 5.10806 29.6994L11.5311 23.4392C11.6145 23.3583 11.7228 23.3062 11.8394 23.2909C11.9561 23.2756 12.0747 23.2979 12.1771 23.3544C14.5585 24.7594 17.3564 25.3406 20.1186 25.004C22.8808 24.6675 25.4458 23.4328 27.3991 21.4997ZM11.8911 19.2268C10.5875 17.9561 9.69972 16.3371 9.34011 14.5747C8.9805 12.8123 9.16516 10.9855 9.87075 9.32535C10.5763 7.66521 11.7712 6.24627 13.3041 5.24796C14.8371 4.24965 16.6394 3.7168 18.4831 3.7168C20.3267 3.7168 22.129 4.24965 23.662 5.24796C25.195 6.24627 26.3898 7.66521 27.0954 9.32535C27.801 10.9855 27.9856 12.8123 27.626 14.5747C27.2664 16.3371 26.3787 17.9561 25.0751 19.2268C23.3254 20.9283 20.9547 21.8838 18.4831 21.8838C16.0114 21.8838 13.6407 20.9283 11.8911 19.2268Z" fill="#4B4B4B"/>
<path d="M12.6961 12.0748C12.4808 12.0754 12.2687 12.024 12.0788 11.925C11.889 11.8261 11.7273 11.6827 11.6083 11.5078C11.4894 11.333 11.4168 11.132 11.3972 10.923C11.3776 10.7141 11.4116 10.5036 11.4961 10.3106C12.3453 8.36028 13.9537 6.81798 15.9684 6.0222C17.983 5.22642 20.2393 5.24218 22.2421 6.06601C22.3996 6.13097 22.5426 6.22554 22.6627 6.34433C22.7827 6.46312 22.8776 6.6038 22.942 6.75834C23.0063 6.91288 23.0387 7.07824 23.0374 7.245C23.0362 7.41176 23.0012 7.57664 22.9346 7.73023C22.8679 7.88383 22.7709 8.02312 22.649 8.14016C22.5271 8.25721 22.3828 8.34971 22.2242 8.41238C22.0657 8.47506 21.896 8.50668 21.7249 8.50544C21.5538 8.50421 21.3846 8.47014 21.2271 8.40518C19.8609 7.84376 18.322 7.83333 16.9479 8.37616C15.5738 8.91899 14.4767 9.97078 13.8971 11.3009C13.7974 11.5308 13.6302 11.727 13.4165 11.8647C13.2028 12.0023 12.9522 12.0754 12.6961 12.0748Z" fill="#4B4B4B"/>
</g>
</svg>
