<svg width="23" height="27" viewBox="0 0 23 27" fill="none" xmlns="http://www.w3.org/2000/svg">
<path opacity="0.34" d="M11.337 26.4217C12.0454 26.4181 12.7236 26.1413 13.2233 25.6518C13.723 25.1624 14.0037 24.5001 14.004 23.8096H8.66895C8.66921 24.5002 8.95 25.1627 9.44995 25.6522C9.9499 26.1417 10.6283 26.4183 11.337 26.4217ZM20.007 18.5864V11.4042C20.0056 9.50193 19.3468 7.65558 18.1369 6.16297C16.927 4.67035 15.2364 3.61852 13.338 3.17713V2.2629C13.338 1.74591 13.1272 1.2501 12.7522 0.88453C12.3771 0.518964 11.8684 0.313591 11.338 0.313591C10.8075 0.313591 10.2988 0.518964 9.92374 0.88453C9.54867 1.2501 9.33795 1.74591 9.33795 2.2629V3.17713C7.4395 3.61852 5.74895 4.67035 4.53901 6.16297C3.32908 7.65558 2.6703 9.50193 2.66895 11.4042V18.5864L0.00195312 21.1985V22.5045H22.675V21.1985L20.007 18.5864Z" fill="#4B4B4B"/>
</svg>
