<svg width="25" height="25" viewBox="0 0 25 25" fill="none" xmlns="http://www.w3.org/2000/svg">
<path opacity="0.34" d="M22.869 12.6625C22.8694 12.0306 23.0663 11.4137 23.4337 10.8931C23.8011 10.3725 24.3218 9.97267 24.927 9.74629C24.6138 8.47049 24.0947 7.25128 23.389 6.13422C22.9795 6.31119 22.5369 6.40377 22.089 6.40615C21.5555 6.4068 21.0303 6.27741 20.5611 6.02977C20.092 5.78214 19.6938 5.4241 19.4028 4.98824C19.1119 4.55239 18.9373 4.05254 18.8951 3.53417C18.8528 3.0158 18.9443 2.49536 19.161 2.02021C18.017 1.33253 16.7681 0.82654 15.461 0.521187C15.2288 1.11122 14.8185 1.61875 14.2843 1.97677C13.75 2.33479 13.1169 2.52645 12.4685 2.52645C11.8201 2.52645 11.187 2.33479 10.6527 1.97677C10.1185 1.61875 9.70816 1.11122 9.476 0.521187C8.16671 0.826455 6.91546 1.33243 5.769 2.02021C5.98574 2.49536 6.07716 3.0158 6.03492 3.53417C5.99268 4.05254 5.81814 4.55239 5.52717 4.98824C5.23619 5.4241 4.83802 5.78214 4.36888 6.02977C3.89974 6.27741 3.37452 6.4068 2.841 6.40615C2.39274 6.40681 1.94951 6.3141 1.541 6.13422C0.837772 7.25527 0.317881 8.47619 0 9.75311C0.604875 9.97936 1.12523 10.3789 1.49248 10.8991C1.85974 11.4193 2.05667 12.0358 2.05732 12.6673C2.05797 13.2987 1.86231 13.9156 1.49612 14.4365C1.12994 14.9574 0.610408 15.358 0.00600004 15.5854C0.319193 16.8612 0.838329 18.0805 1.544 19.1975C2.13528 18.9406 2.79261 18.8645 3.42918 18.9793C4.06576 19.0941 4.65163 19.3944 5.10945 19.8405C5.56727 20.2866 5.8755 20.8576 5.99343 21.478C6.11137 22.0984 6.03346 22.7391 5.77 23.3154C6.91704 24.0021 8.1681 24.508 9.477 24.8144C9.70944 24.2265 10.1192 23.7209 10.6522 23.3644C11.1852 23.0078 11.8165 22.817 12.463 22.817C13.1095 22.817 13.7408 23.0078 14.2738 23.3644C14.8068 23.7209 15.2166 24.2265 15.449 24.8144C16.7583 24.5092 18.0095 24.0032 19.156 23.3154C18.8925 22.7391 18.8146 22.0984 18.9326 21.478C19.0505 20.8576 19.3587 20.2866 19.8165 19.8405C20.2744 19.3944 20.8602 19.0941 21.4968 18.9793C22.1334 18.8645 22.7907 18.9406 23.382 19.1975C24.0866 18.0799 24.6056 16.8609 24.92 15.5854C24.3161 15.3558 23.7974 14.9541 23.4315 14.4326C23.0656 13.9111 22.8695 13.2942 22.869 12.6625ZM12.522 17.717C11.4952 17.7168 10.4914 17.4199 9.63775 16.8637C8.78406 16.3075 8.11875 15.5172 7.72593 14.5925C7.33311 13.6678 7.23044 12.6503 7.43088 11.6688C7.63133 10.6872 8.1259 9.78563 8.85206 9.07802C9.57821 8.3704 10.5033 7.88854 11.5105 7.69337C12.5176 7.49819 13.5615 7.59846 14.5101 7.9815C15.4588 8.36454 16.2696 9.01314 16.8401 9.8453C17.4105 10.6775 17.715 11.6558 17.715 12.6566C17.7151 13.3213 17.5809 13.9794 17.32 14.5935C17.059 15.2076 16.6765 15.7655 16.1942 16.2355C15.712 16.7054 15.1395 17.0781 14.5094 17.3324C13.8793 17.5866 13.2039 17.7173 12.522 17.717Z" fill="#4B4B4B"/>
</svg>
