<svg width="16" height="16" viewBox="0 0 16 16" fill="none" xmlns="http://www.w3.org/2000/svg">
<path fill-rule="evenodd" clip-rule="evenodd" d="M4.35607 12.1783L2.24407 14.3722C2.10761 14.5052 1.92254 14.5799 1.72957 14.5799C1.53659 14.5799 1.35152 14.5052 1.21507 14.3722C1.07861 14.2392 1.00195 14.0589 1.00195 13.8708C1.00195 13.6827 1.07861 13.5023 1.21507 13.3693L3.47407 11.304" fill="#2D023D"/>
<path d="M4.35607 12.1783L2.24407 14.3722C2.10761 14.5052 1.92254 14.5799 1.72957 14.5799C1.53659 14.5799 1.35152 14.5052 1.21507 14.3722C1.07861 14.2392 1.00195 14.0589 1.00195 13.8708C1.00195 13.6827 1.07861 13.5023 1.21507 13.3693L3.47407 11.304" stroke="#2D023D" stroke-miterlimit="22.926" stroke-linecap="round" stroke-linejoin="round"/>
<path d="M3.92908 7.29522C4.37885 6.85685 4.95189 6.55832 5.57573 6.43737C6.19957 6.31643 6.8462 6.3785 7.43385 6.61574C8.0215 6.85299 8.52377 7.25474 8.87715 7.77021C9.23052 8.28567 9.41914 8.89169 9.41914 9.51163C9.41914 10.1316 9.23052 10.7376 8.87715 11.2531C8.52377 11.7685 8.0215 12.1703 7.43385 12.4075C6.8462 12.6448 6.19957 12.7068 5.57573 12.5859C4.95189 12.4649 4.37885 12.1664 3.92908 11.7281C3.32597 11.1402 2.98714 10.343 2.98714 9.51163C2.98714 8.68032 3.32597 7.88305 3.92908 7.29522Z" stroke="#2D023D" stroke-linecap="round"/>
<path d="M5.05701 6.44148V0.873276H12.491L15.064 3.38106V13.9697H5.05701V12.5808" stroke="#2D023D" stroke-miterlimit="22.926" stroke-linecap="round" stroke-linejoin="round"/>
<path d="M14.9231 3.38106H12.4911V1.01265" stroke="#2D023D" stroke-miterlimit="22.926" stroke-linecap="round" stroke-linejoin="round"/>
<path d="M6.87512 3.13058H8.63812" stroke="#2D023D" stroke-miterlimit="22.926" stroke-linecap="round" stroke-linejoin="round"/>
<path d="M6.63208 5.12277H13.7801" stroke="#2D023D" stroke-miterlimit="22.926" stroke-linecap="round" stroke-linejoin="round"/>
<path d="M10.661 8.88396H13.781" stroke="#2D023D" stroke-miterlimit="22.926" stroke-linecap="round" stroke-linejoin="round"/>
<path d="M10.2731 11.3917H13.7801" stroke="#2D023D" stroke-miterlimit="22.926" stroke-linecap="round" stroke-linejoin="round"/>
<path d="M7.16803 8.882L5.88104 10.1364L5.23804 9.50969" stroke="#2D023D" stroke-miterlimit="22.926" stroke-linecap="round" stroke-linejoin="round"/>
</svg>
