<svg width="40" height="40" viewBox="0 0 40 40" fill="none" xmlns="http://www.w3.org/2000/svg">
<path d="M14.1666 11.6666V23.3333H7.49992C7.05789 23.3333 6.63397 23.1577 6.32141 22.8451C6.00885 22.5325 5.83325 22.1086 5.83325 21.6666V13.3333C5.83325 12.8912 6.00885 12.4673 6.32141 12.1547C6.63397 11.8422 7.05789 11.6666 7.49992 11.6666H14.1666ZM30.8333 7.49992V27.4999C30.8333 27.9419 30.6577 28.3659 30.3451 28.6784C30.0325 28.991 29.6086 29.1666 29.1666 29.1666C28.7246 29.1666 28.3006 28.991 27.9881 28.6784C27.6755 28.3659 27.4999 27.9419 27.4999 27.4999V7.49992C27.4999 7.05789 27.6755 6.63397 27.9881 6.32141C28.3006 6.00885 28.7246 5.83325 29.1666 5.83325C29.6086 5.83325 30.0325 6.00885 30.3451 6.32141C30.6577 6.63397 30.8333 7.05789 30.8333 7.49992ZM25.8333 8.51659V26.4833C22.7544 24.7786 19.3429 23.7608 15.8333 23.4999V11.4999C19.3441 11.2456 22.757 10.2274 25.8333 8.51659Z" fill="#2D023D"/>
<path d="M4.16659 13.3332V21.6666H2.49992C2.05789 21.6666 1.63397 21.491 1.32141 21.1784C1.00885 20.8659 0.833252 20.4419 0.833252 19.9999V14.9999C0.833252 14.5579 1.00885 14.134 1.32141 13.8214C1.63397 13.5088 2.05789 13.3332 2.49992 13.3332H4.16659ZM11.3916 34.1666H9.76659C9.36465 34.1711 8.9746 34.0302 8.66833 33.7699C8.36206 33.5096 8.16019 33.1473 8.09992 32.7499L6.91659 24.9499C7.31659 25.0166 7.16659 24.9999 11.9166 24.9999L13.0333 32.2499C13.0692 32.4867 13.0537 32.7284 12.9877 32.9587C12.9218 33.1889 12.8071 33.4022 12.6513 33.5841C12.4955 33.766 12.3023 33.9122 12.0849 34.0127C11.8676 34.1132 11.6311 34.1657 11.3916 34.1666ZM38.3333 18.3332H34.1666C33.9456 18.3332 33.7336 18.2454 33.5773 18.0892C33.421 17.9329 33.3333 17.7209 33.3333 17.4999C33.3333 17.2789 33.421 17.0669 33.5773 16.9107C33.7336 16.7544 33.9456 16.6666 34.1666 16.6666H38.3333C38.5543 16.6666 38.7662 16.7544 38.9225 16.9107C39.0788 17.0669 39.1666 17.2789 39.1666 17.4999C39.1666 17.7209 39.0788 17.9329 38.9225 18.0892C38.7662 18.2454 38.5543 18.3332 38.3333 18.3332ZM34.1666 13.3332C34.0011 13.3342 33.839 13.2859 33.7011 13.1944C33.5631 13.1029 33.4556 12.9723 33.3921 12.8195C33.3286 12.6666 33.3121 12.4983 33.3447 12.336C33.3772 12.1737 33.4574 12.0248 33.5749 11.9082L36.9083 8.57491C37.0652 8.41799 37.278 8.32983 37.4999 8.32983C37.7218 8.32983 37.9347 8.41799 38.0916 8.57491C38.2485 8.73183 38.3367 8.94466 38.3367 9.16658C38.3367 9.38849 38.2485 9.60132 38.0916 9.75824C34.4499 13.3999 34.6333 13.3332 34.1666 13.3332ZM37.4999 26.6666C37.0333 26.6666 37.2499 26.7666 33.5749 23.0916C33.418 22.9347 33.3298 22.7218 33.3298 22.4999C33.3298 22.278 33.418 22.0652 33.5749 21.9082C33.7318 21.7513 33.9447 21.6632 34.1666 21.6632C34.3885 21.6632 34.6013 21.7513 34.7583 21.9082L38.0916 25.2416C38.2091 25.3581 38.2893 25.5071 38.3218 25.6693C38.3544 25.8316 38.3379 25.9999 38.2744 26.1528C38.2109 26.3057 38.1034 26.4362 37.9654 26.5277C37.8275 26.6192 37.6654 26.6675 37.4999 26.6666Z" fill="#2D023D"/>
</svg>
