<svg width="78" height="78" viewBox="0 0 78 78" fill="none" xmlns="http://www.w3.org/2000/svg">
<rect width="78" height="78" rx="39" fill="#F79A9C" fill-opacity="0.06"/>
<g clip-path="url(#clip0_499_1810)">
<path d="M66 28.1064C66.0061 29.7266 65.6909 31.3318 65.0724 32.8293C64.454 34.3268 63.5447 35.6868 62.3972 36.8305L52.3183 46.9094C50.7475 48.4831 48.7802 49.6026 46.625 50.1493C44.4697 50.696 42.2067 50.6496 40.0757 50.0149C37.9447 49.3801 36.0251 48.1808 34.5202 46.5439C33.0154 44.9071 31.9813 42.8936 31.5275 40.7169C31.3476 39.8414 31.5223 38.9304 32.0133 38.1835C32.5043 37.4367 33.2714 36.9151 34.1465 36.7332C35.0215 36.5513 35.933 36.7239 36.681 37.2131C37.4289 37.7024 37.9523 38.4683 38.1362 39.343C38.3468 40.3247 38.8178 41.2316 39.4997 41.9685C40.1817 42.7054 41.0496 43.2451 42.0121 43.5308C42.9746 43.8166 43.9963 43.8379 44.9699 43.5925C45.9436 43.3472 46.8331 42.8442 47.5453 42.1364L57.6242 32.0574C58.1465 31.5393 58.5614 30.9232 58.845 30.2443C59.1286 29.5655 59.2754 28.8374 59.2769 28.1017C59.2784 27.366 59.1346 26.6372 58.8537 25.9573C58.5729 25.2773 58.1605 24.6595 57.6403 24.1392C57.1201 23.619 56.5023 23.2067 55.8223 22.9258C55.1423 22.645 54.4136 22.5012 53.6779 22.5027C52.9422 22.5042 52.214 22.6509 51.5352 22.9345C50.8564 23.2182 50.2403 23.633 49.7222 24.1554L46.6771 27.1325C46.0441 27.7655 45.1857 28.121 44.2905 28.121C43.3954 28.121 42.537 27.7654 41.904 27.1325C41.2711 26.4995 40.9155 25.6411 40.9155 24.7459C40.9155 23.8508 41.2711 22.9924 41.9041 22.3594L44.9492 19.3828C46.6732 17.6558 48.8709 16.4794 51.2641 16.0025C53.6572 15.5256 56.138 15.7697 58.3923 16.7039C60.6466 17.6381 62.5729 19.2203 63.9272 21.2502C65.2815 23.2801 66.0029 25.6662 66 28.1064ZM31.2918 50.7338L28.308 53.8145C26.1059 56.0166 22.5419 56.0356 20.3634 53.8567C18.1848 51.6778 18.2038 48.1141 20.4055 45.912L30.5516 35.7659C32.7536 33.5637 36.3176 33.5445 38.4963 35.7237C39.2587 36.4865 39.7796 37.457 39.9939 38.514C40.1734 39.3909 40.6939 40.1606 41.4409 40.6538C42.1879 41.1469 43.1003 41.3231 43.9772 41.1436C44.8541 40.9641 45.6238 40.4436 46.117 39.6966C46.6101 38.9496 46.7863 38.0373 46.6068 37.1604C46.1283 34.8076 44.9674 32.6478 43.269 30.9507C38.4585 26.1403 30.6127 26.1594 25.7783 30.9929L15.6322 41.139C10.7984 45.9728 10.7793 53.8191 15.59 58.6297C17.9169 60.94 21.0651 62.233 24.344 62.2251C27.623 62.2172 30.7649 60.909 33.0806 58.5875L36.0645 55.5066C36.381 55.1939 36.6326 54.8217 36.8047 54.4114C36.9768 54.0011 37.0661 53.5608 37.0675 53.1159C37.0688 52.6709 36.9822 52.2301 36.8125 51.8188C36.6428 51.4075 36.3935 51.0338 36.0789 50.7192C35.7643 50.4045 35.3906 50.1553 34.9792 49.9856C34.5679 49.816 34.1271 49.7294 33.6822 49.7307C33.2372 49.7321 32.797 49.8214 32.3867 49.9935C31.9764 50.1657 31.6042 50.4173 31.2915 50.7338H31.2918Z" fill="#F79A9C"/>
</g>
<defs>
<clipPath id="clip0_499_1810">
<rect width="54" height="54" fill="white" transform="translate(12 12)"/>
</clipPath>
</defs>
</svg>
