<svg width="50" height="50" viewBox="0 0 50 50" fill="none" xmlns="http://www.w3.org/2000/svg">
<path fill-rule="evenodd" clip-rule="evenodd" d="M35.9897 19.817C34.1684 21.3747 31.8035 22.3155 29.2186 22.3155C23.462 22.3155 18.7963 17.6497 18.7963 11.8931C18.7963 6.13649 23.462 1.4707 29.2186 1.4707C34.9753 1.4707 39.6411 6.13649 39.6411 11.8931C39.6411 14.1165 38.945 16.1773 37.7589 17.8692L41.0257 21.0411L41.1439 20.9193C41.5056 20.5458 42.1103 20.5369 42.4838 20.8985L48.2078 26.4536C48.5813 26.8152 48.5902 27.417 48.2256 27.7934L46.1595 29.9218C45.7978 30.2953 45.1961 30.3042 44.8196 29.9426L39.0986 24.3875C38.7221 24.0259 38.7132 23.4212 39.0778 23.0477L39.1945 22.9275L35.9897 19.817ZM29.2186 3.90139C24.8049 3.90139 21.2269 7.47933 21.2269 11.8931C21.2269 16.3069 24.8049 19.8847 29.2186 19.8847C33.6324 19.8847 37.2104 16.3069 37.2104 11.8931C37.2104 7.47933 33.6324 3.90139 29.2186 3.90139ZM28.7785 6.54168C28.8405 6.351 29.0182 6.22198 29.2186 6.22198C29.4191 6.22198 29.5967 6.351 29.6587 6.54168L30.7328 9.84727H34.2085C34.409 9.84727 34.5866 9.97639 34.6486 10.1671C34.7106 10.3578 34.6427 10.5666 34.4806 10.6844L31.6686 12.7274L32.7426 16.0331C32.8046 16.2236 32.7367 16.4326 32.5746 16.5504C32.4123 16.6683 32.1927 16.6683 32.0306 16.5504L29.2186 14.5074L26.4067 16.5504C26.2445 16.6683 26.0249 16.6683 25.8627 16.5504C25.7006 16.4326 25.6327 16.2236 25.6946 16.0331L26.7687 12.7274L23.9567 10.6844C23.7946 10.5666 23.7267 10.3578 23.7887 10.1671C23.8506 9.97639 24.0283 9.84727 24.2287 9.84727H27.7045L28.7785 6.54168ZM11.27 48.5293C7.36234 48.529 3.42253 48.5286 1.99479 48.5277C1.85194 48.5277 1.71636 48.4652 1.62351 48.3567C1.53077 48.2481 1.49018 48.1043 1.51234 47.9634C2.28332 43.351 6.29214 39.8351 11.1217 39.8351C12.381 39.8351 13.5844 40.0739 14.6891 40.5086C12.8943 42.481 11.659 44.9719 11.2342 47.73C11.2336 47.7341 11.2329 47.7383 11.2323 47.7424C11.1936 48.0077 11.2075 48.2747 11.27 48.5293ZM35.2416 40.5083C36.3458 40.0737 37.5483 39.8351 38.8065 39.8351C43.6387 39.8351 47.6477 43.3511 48.4181 47.9633C48.4404 48.1048 48.3995 48.249 48.3064 48.358C48.2132 48.4669 48.0771 48.5295 47.9338 48.5295C46.5065 48.5295 42.5673 48.5295 38.66 48.5293C38.7223 48.275 38.7363 48.0083 38.6977 47.7433C38.6971 47.7389 38.6965 47.7347 38.6959 47.7305C38.2717 44.9721 37.0367 42.4808 35.2416 40.5083ZM38.8065 38.8547C36.0938 38.8547 33.8825 36.6409 33.8825 33.9281C33.8825 31.2153 36.0938 29.0015 38.8065 29.0015C41.5219 29.0015 43.7332 31.2153 43.7332 33.9281C43.7332 36.6409 41.5219 38.8547 38.8065 38.8547ZM11.1217 38.8547C8.4089 38.8547 6.19763 36.6409 6.19763 33.9281C6.19763 31.2153 8.4089 29.0015 11.1217 29.0015C13.8371 29.0015 16.0484 31.2153 16.0484 33.9281C16.0484 36.6409 13.8371 38.8547 11.1217 38.8547ZM12.7846 47.9687C13.6949 42.0585 18.8012 37.5322 24.9641 37.5322C31.1304 37.5322 36.2368 42.0586 37.1455 47.9688C37.1659 48.1096 37.1242 48.2525 37.0311 48.36C36.9379 48.4677 36.8026 48.5295 36.6603 48.5295C33.3754 48.5295 16.554 48.5295 13.2682 48.5282C13.1263 48.5282 12.9914 48.4664 12.8985 48.359C12.8057 48.2517 12.7641 48.1092 12.7846 47.9687ZM24.9641 36.5518C21.5328 36.5518 18.7359 33.7516 18.7359 30.3202C18.7359 26.8889 21.5328 24.0886 24.9641 24.0886C28.3987 24.0886 31.1958 26.8889 31.1958 30.3202C31.1958 33.7516 28.3987 36.5518 24.9641 36.5518Z" fill="black"/>
</svg>
