<svg width="78" height="78" viewBox="0 0 78 78" fill="none" xmlns="http://www.w3.org/2000/svg">
<rect width="78" height="78" rx="39" fill="#46D34D" fill-opacity="0.06"/>
<g clip-path="url(#clip0_499_1793)">
<mask id="mask0_499_1793" style="mask-type:luminance" maskUnits="userSpaceOnUse" x="12" y="12" width="54" height="54">
<path d="M12 12H66V66H12V12Z" fill="white"/>
</mask>
<g mask="url(#mask0_499_1793)">
<path fill-rule="evenodd" clip-rule="evenodd" d="M49.5381 33.6C49.7001 35.2983 49.8 37.0884 49.8 39C49.8 39.716 49.5154 40.4029 49.0092 40.9092C48.5029 41.4154 47.816 41.7 47.1 41.7C46.384 41.7 45.6971 41.4154 45.1908 40.9092C44.6846 40.4029 44.4 39.716 44.4 39C44.4 37.0749 44.2947 35.2794 44.1165 33.6H33.8484C33.4732 37.19 33.4695 40.8093 33.8376 44.4H39C39.716 44.4 40.4029 44.6846 40.9092 45.1908C41.4154 45.6971 41.7 46.384 41.7 47.1C41.7 47.816 41.4154 48.5029 40.9092 49.0092C40.4029 49.5154 39.716 49.8 39 49.8H34.7232C35.9895 55.416 37.9686 59.007 39.0027 60.6C39.0027 60.6 41.133 60.6351 41.5029 60.6054C42.216 60.5592 42.9185 60.7952 43.459 61.2623C43.9996 61.7297 44.3347 62.3906 44.3919 63.1029C44.444 63.8168 44.2105 64.522 43.7426 65.0639C43.2746 65.6055 42.611 65.9395 41.8971 65.9919C41.6433 66.0108 39 66 39 66C24.1122 66 12 53.8878 12 39C12 24.1095 24.1122 12 39 12C53.8878 12 66 24.1095 66 39C66 40.0233 65.9028 41.0223 65.7867 42.0132C65.6795 42.7044 65.3085 43.327 64.7518 43.7504C64.1951 44.1735 63.4958 44.3646 62.8013 44.2831C62.1066 44.2016 61.4705 43.8541 61.0269 43.3135C60.583 42.773 60.3662 42.0812 60.4218 41.3841C60.5163 40.5984 60.6 39.81 60.6 39C60.6 37.1316 60.3354 35.328 59.8899 33.6H49.5381ZM38.9676 17.4972C37.9254 19.1334 35.9976 22.7109 34.7448 28.2H43.2147C41.9565 22.7109 40.0152 19.1334 38.9676 17.4972ZM18.1101 44.4H28.4214C28.2648 42.7017 28.1649 40.917 28.1649 39.0108C28.1666 37.2041 28.2531 35.3986 28.4241 33.6H18.1101C17.6619 35.328 17.4 37.1316 17.4 39C17.4067 40.8228 17.6453 42.6374 18.1101 44.4ZM20.3214 49.8C22.9876 54.4 27.251 57.86 32.3013 59.5227C30.8944 56.4131 29.8542 53.1502 29.2017 49.8H20.3214ZM29.2071 28.2C30.0198 24.1473 31.1916 20.9019 32.3121 18.4719C27.2568 20.1333 22.9891 23.5957 20.3214 28.2H29.2071ZM48.7524 28.2H57.6759C54.9972 23.574 50.704 20.1009 45.6204 18.4476C47.0444 21.5639 48.0958 24.8373 48.7524 28.2Z" fill="#46D34D"/>
<path d="M53.1026 63.1526L46.2174 48.0048C45.7011 46.8691 46.8694 45.7011 48.005 46.2171L63.1526 53.1026C64.1864 53.5724 64.2134 55.0312 63.1977 55.5391L58.4945 57.8905C58.2332 58.0212 58.0215 58.2332 57.8908 58.4943L55.5391 63.1977C55.0313 64.2134 53.5727 64.1864 53.1026 63.1526Z" fill="#46D34D"/>
</g>
</g>
<defs>
<clipPath id="clip0_499_1793">
<rect width="54" height="54" fill="white" transform="translate(12 12)"/>
</clipPath>
</defs>
</svg>
