<svg width="36" height="36" viewBox="0 0 36 36" fill="none" xmlns="http://www.w3.org/2000/svg">
<rect x="0.5" y="0.5" width="35" height="35" rx="17.5" fill="#F5F5F5"/>
<rect x="0.5" y="0.5" width="35" height="35" rx="17.5" stroke="#DDDDDD"/>
<g clip-path="url(#clip0_455_2126)">
<path d="M28 18C28 12.4772 23.5228 8 18 8C12.4772 8 8 12.4772 8 18C8 22.9913 11.6569 27.1283 16.4375 27.8785V20.8906H13.8984V18H16.4375V15.7969C16.4375 13.2906 17.9304 11.9062 20.2146 11.9062C21.3087 11.9062 22.4531 12.1016 22.4531 12.1016V14.5625H21.1921C19.9499 14.5625 19.5625 15.3333 19.5625 16.1242V18H22.3359L21.8926 20.8906H19.5625V27.8785C24.3431 27.1283 28 22.9913 28 18Z" fill="#1877F2"/>
<path d="M21.8926 20.8906L22.3359 18H19.5625V16.1242C19.5625 15.3333 19.9499 14.5625 21.1921 14.5625H22.4531V12.1016C22.4531 12.1016 21.3087 11.9062 20.2146 11.9062C17.9304 11.9062 16.4375 13.2906 16.4375 15.7969V18H13.8984V20.8906H16.4375V27.8785C17.4729 28.0405 18.5271 28.0405 19.5625 27.8785V20.8906H21.8926Z" fill="white"/>
</g>
<defs>
<clipPath id="clip0_455_2126">
<rect width="20" height="20" fill="white" transform="translate(8 8)"/>
</clipPath>
</defs>
</svg>
