<svg width="36" height="36" viewBox="0 0 36 36" fill="none" xmlns="http://www.w3.org/2000/svg">
<rect x="0.5" y="0.5" width="34.544" height="35" rx="17.272" fill="#F5F5F5"/>
<rect x="0.5" y="0.5" width="34.544" height="35" rx="17.272" stroke="#DDDDDD"/>
<g clip-path="url(#clip0_455_2144)">
<path d="M27.5336 18.1871C27.5336 17.3677 27.4671 16.7697 27.3232 16.1497H17.9666V19.848H23.4587C23.348 20.7671 22.7501 22.1512 21.4213 23.0813L21.4027 23.2051L24.3611 25.4969L24.566 25.5174C26.4484 23.7789 27.5336 21.221 27.5336 18.1871Z" fill="#4285F4"/>
<path d="M17.9666 27.9312C20.6573 27.9312 22.9162 27.0453 24.5661 25.5173L21.4214 23.0812C20.5798 23.6681 19.4504 24.0777 17.9666 24.0777C15.3313 24.0777 13.0946 22.3393 12.2972 19.9365L12.1804 19.9464L9.10419 22.3271L9.06396 22.439C10.7027 25.6944 14.0689 27.9312 17.9666 27.9312Z" fill="#34A853"/>
<path d="M12.2972 19.9366C12.0869 19.3165 11.9651 18.6521 11.9651 17.9656C11.9651 17.279 12.0869 16.6147 12.2862 15.9946L12.2806 15.8625L9.16586 13.4436L9.06395 13.4921C8.38853 14.843 8.00098 16.36 8.00098 17.9656C8.00098 19.5712 8.38853 21.0881 9.06395 22.439L12.2972 19.9366Z" fill="#FBBC05"/>
<path d="M17.9666 11.8534C19.8379 11.8534 21.1002 12.6617 21.82 13.3372L24.6325 10.5911C22.9052 8.9855 20.6573 8 17.9666 8C14.0689 8 10.7027 10.2367 9.06396 13.4921L12.2862 15.9947C13.0946 13.5918 15.3313 11.8534 17.9666 11.8534Z" fill="#EB4335"/>
</g>
<defs>
<clipPath id="clip0_455_2144">
<rect width="19.544" height="20" fill="white" transform="translate(8 8)"/>
</clipPath>
</defs>
</svg>
