<svg width="21" height="25" viewBox="0 0 21 25" fill="none" xmlns="http://www.w3.org/2000/svg">
<path d="M8.29218 4.21665V5.19983L8.38361 8.73905C8.38325 8.75684 8.37831 8.77424 8.36926 8.78957C8.3602 8.80489 8.34735 8.81761 8.33193 8.8265L0.397516 14.1413C0.275466 14.2213 0.175231 14.3304 0.105838 14.4588C0.0364455 14.5871 7.42384e-05 14.7308 0 14.8767L0 16.1686C0 16.4734 0.304762 16.5767 0.575073 16.4681L8.37831 13.7385C8.39461 13.7318 8.41229 13.7292 8.42982 13.7309C8.44735 13.7326 8.46421 13.7385 8.47894 13.7482C8.49367 13.7578 8.50584 13.7709 8.51439 13.7863C8.52295 13.8017 8.52763 13.8189 8.52804 13.8365L8.61284 20.5135C8.61565 20.5827 8.60198 20.6516 8.57296 20.7145C8.54393 20.7773 8.50038 20.8324 8.44589 20.8752L5.99851 22.8919C5.89615 22.9718 5.81301 23.0736 5.75522 23.1899C5.69743 23.3062 5.66646 23.4339 5.6646 23.5637V24.4913C5.66131 24.5284 5.66758 24.5658 5.6828 24.5998C5.69802 24.6339 5.7217 24.6634 5.75158 24.6857C5.78145 24.708 5.81654 24.7223 5.8535 24.7273C5.89046 24.7322 5.92806 24.7276 5.96274 24.7139L9.70601 23.6273C9.91472 23.5456 10.1466 23.5456 10.3553 23.6273L14.1012 24.7139C14.134 24.7248 14.1689 24.7277 14.2031 24.7225C14.2372 24.7173 14.2697 24.7041 14.2977 24.6839C14.3258 24.6637 14.3487 24.6372 14.3645 24.6065C14.3803 24.5758 14.3886 24.5417 14.3887 24.5072V23.5651C14.3882 23.4325 14.3579 23.3018 14.3001 23.1826C14.2424 23.0633 14.1585 22.9586 14.0548 22.876L11.5611 20.8182C11.5075 20.7748 11.4646 20.7195 11.4359 20.6568C11.4072 20.594 11.3933 20.5255 11.3955 20.4565L11.5452 13.8193C11.5456 13.8017 11.5503 13.7845 11.5588 13.7691C11.5674 13.7537 11.5795 13.7406 11.5943 13.7309C11.609 13.7213 11.6259 13.7154 11.6434 13.7137C11.6609 13.712 11.6786 13.7146 11.6949 13.7212L19.4862 16.4734C19.7671 16.582 20.0613 16.4734 20.0613 16.1739V14.882C20.0623 14.7359 20.0264 14.5918 19.9569 14.4633C19.8874 14.3347 19.7866 14.2258 19.6638 14.1466L11.7161 8.8265C11.7005 8.81687 11.6875 8.80344 11.6785 8.78745C11.6695 8.77146 11.6646 8.75344 11.6644 8.73508L11.7559 5.19586V4.21267C11.7559 1.79313 10.9741 0.270638 10.0333 0.270638C9.09251 0.270638 8.29218 1.80373 8.29218 4.21665Z" fill="#5AD681"/>
</svg>
