<svg width="26" height="26" viewBox="0 0 26 26" fill="none" xmlns="http://www.w3.org/2000/svg">
<rect x="0.587891" y="1" width="24" height="24" rx="12" stroke="black"/>
<path d="M12.2159 9.016C11.8852 9.016 11.6079 8.904 11.3839 8.68C11.1599 8.456 11.0479 8.17867 11.0479 7.848C11.0479 7.51733 11.1599 7.24 11.3839 7.016C11.6079 6.792 11.8852 6.68 12.2159 6.68C12.5359 6.68 12.8079 6.792 13.0319 7.016C13.2559 7.24 13.3679 7.51733 13.3679 7.848C13.3679 8.17867 13.2559 8.456 13.0319 8.68C12.8079 8.904 12.5359 9.016 12.2159 9.016ZM13.1119 10.184V19H11.2879V10.184H13.1119Z" fill="black"/>
</svg>
