<svg width="36" height="36" viewBox="0 0 36 36" fill="none" xmlns="http://www.w3.org/2000/svg">
<rect x="0.5" y="0.5" width="35" height="35" rx="17.5" fill="#F5F5F5"/>
<rect x="0.5" y="0.5" width="35" height="35" rx="17.5" stroke="#DDDDDD"/>
<g clip-path="url(#clip0_455_2164)">
<path d="M13.0716 27.9292C12.298 27.9206 11.5317 27.7787 10.8063 27.5098C10.2766 27.314 9.7973 27.0023 9.40353 26.5975C8.9976 26.2045 8.68543 25.7251 8.4902 25.1949C8.22152 24.4695 8.07984 23.7033 8.07137 22.9298C8.01196 21.6439 8 21.2582 8 18C8 14.7418 8.01314 14.3575 8.07078 13.0706C8.08028 12.2974 8.22213 11.5316 8.4902 10.8063C8.68638 10.2765 8.99811 9.79702 9.40275 9.40275C9.79603 8.99718 10.2755 8.6853 10.8057 8.4902C11.5311 8.2213 12.2974 8.07942 13.071 8.07078C14.3573 8.01196 14.7435 8 18 8C21.2565 8 21.6425 8.01314 22.9294 8.07078C23.7028 8.08021 24.4688 8.22207 25.1943 8.4902C25.7243 8.68556 26.2036 8.99733 26.5971 9.40255C27.0024 9.79613 27.3143 10.2756 27.5098 10.8057C27.7788 11.5311 27.9207 12.2974 27.9294 13.071C27.9882 14.3578 28.0002 14.7431 28.0002 18.0004C28.0002 21.2576 27.9882 21.6429 27.9294 22.9298C27.9201 23.7033 27.7781 24.4694 27.5098 25.1949C27.3068 25.721 26.9959 26.1988 26.5971 26.5975C26.1983 26.9962 25.7205 27.307 25.1943 27.5098C24.4689 27.7788 23.7026 27.9207 22.929 27.9294C21.6433 27.9882 21.2569 28.0002 17.9996 28.0002C14.7424 28.0002 14.3571 27.9888 13.0714 27.9294" fill="url(#paint0_radial_455_2164)"/>
<path d="M13.0716 27.9292C12.298 27.9206 11.5317 27.7787 10.8063 27.5098C10.2766 27.314 9.7973 27.0023 9.40353 26.5975C8.9976 26.2045 8.68543 25.7251 8.4902 25.1949C8.22152 24.4695 8.07984 23.7033 8.07137 22.9298C8.01196 21.6439 8 21.2582 8 18C8 14.7418 8.01314 14.3575 8.07078 13.0706C8.08028 12.2974 8.22213 11.5316 8.4902 10.8063C8.68638 10.2765 8.99811 9.79702 9.40275 9.40275C9.79603 8.99718 10.2755 8.6853 10.8057 8.4902C11.5311 8.2213 12.2974 8.07942 13.071 8.07078C14.3573 8.01196 14.7435 8 18 8C21.2565 8 21.6425 8.01314 22.9294 8.07078C23.7028 8.08021 24.4688 8.22207 25.1943 8.4902C25.7243 8.68556 26.2036 8.99733 26.5971 9.40255C27.0024 9.79613 27.3143 10.2756 27.5098 10.8057C27.7788 11.5311 27.9207 12.2974 27.9294 13.071C27.9882 14.3578 28.0002 14.7431 28.0002 18.0004C28.0002 21.2576 27.9882 21.6429 27.9294 22.9298C27.9201 23.7033 27.7781 24.4694 27.5098 25.1949C27.3068 25.721 26.9959 26.1988 26.5971 26.5975C26.1983 26.9962 25.7205 27.307 25.1943 27.5098C24.4689 27.7788 23.7026 27.9207 22.929 27.9294C21.6433 27.9882 21.2569 28.0002 17.9996 28.0002C14.7424 28.0002 14.3571 27.9888 13.0714 27.9294" fill="url(#paint1_radial_455_2164)"/>
<path d="M15.5445 18.0426C15.5446 17.5528 15.6899 17.074 15.9621 16.6667C16.2342 16.2594 16.6211 15.942 17.0737 15.7546C17.5262 15.5672 18.0242 15.5182 18.5047 15.6138C18.9851 15.7094 19.4264 15.9454 19.7727 16.2918C20.119 16.6382 20.3548 17.0795 20.4503 17.56C20.5459 18.0404 20.4967 18.5384 20.3092 18.9909C20.1217 19.4435 19.8042 19.8302 19.3969 20.1023C18.9895 20.3744 18.5107 20.5196 18.0208 20.5195C17.364 20.5194 16.7341 20.2584 16.2697 19.7939C15.8053 19.3294 15.5445 18.6995 15.5445 18.0426ZM14.2055 18.0426C14.2055 18.7972 14.4293 19.5349 14.8485 20.1623C15.2677 20.7897 15.8636 21.2787 16.5608 21.5675C17.2579 21.8563 18.0251 21.9318 18.7651 21.7846C19.5052 21.6374 20.1851 21.274 20.7186 20.7405C21.2522 20.2069 21.6156 19.5271 21.7628 18.787C21.91 18.0469 21.8345 17.2797 21.5457 16.5826C21.2569 15.8854 20.7679 15.2896 20.1405 14.8703C19.5131 14.4511 18.7754 14.2273 18.0208 14.2273C17.5198 14.2273 17.0236 14.326 16.5607 14.5177C16.0978 14.7094 15.6772 14.9905 15.3229 15.3448C14.9687 15.6991 14.6876 16.1197 14.4959 16.5826C14.3042 17.0455 14.2055 17.5416 14.2055 18.0426ZM21.0955 14.0762C21.0954 14.2525 21.1477 14.4249 21.2456 14.5716C21.3435 14.7182 21.4827 14.8326 21.6455 14.9001C21.8084 14.9677 21.9877 14.9854 22.1606 14.9511C22.3336 14.9168 22.4925 14.8319 22.6173 14.7073C22.742 14.5826 22.827 14.4238 22.8615 14.2509C22.8959 14.078 22.8784 13.8987 22.8109 13.7357C22.7435 13.5728 22.6293 13.4335 22.4827 13.3355C22.3362 13.2374 22.1638 13.1851 21.9875 13.185C21.7511 13.1851 21.5245 13.279 21.3573 13.4461C21.1901 13.6132 21.0961 13.8398 21.0959 14.0762M15.0194 24.0907C14.5483 24.0855 14.0815 23.9993 13.6396 23.8358C13.3192 23.7123 13.0281 23.523 12.7852 23.2802C12.5423 23.0374 12.3529 22.7464 12.2292 22.426C12.0657 21.9841 11.9794 21.5173 11.9743 21.0462C11.9383 20.263 11.9312 20.0277 11.9312 18.0436C11.9312 16.0595 11.9391 15.8248 11.9743 15.0409C11.9801 14.5698 12.0663 14.1031 12.2292 13.6611C12.3528 13.3405 12.5421 13.0494 12.785 12.8064C13.0279 12.5635 13.3191 12.3742 13.6396 12.2507C14.0815 12.0871 14.5483 12.0009 15.0194 11.9958C15.8026 11.9597 16.0379 11.9526 18.0212 11.9526C20.0045 11.9526 20.24 11.9603 21.024 11.996C21.4951 12.0017 21.9617 12.0879 22.4038 12.2509C22.7243 12.3744 23.0155 12.5637 23.2584 12.8067C23.5013 13.0496 23.6906 13.3407 23.8142 13.6613C23.9777 14.1032 24.0639 14.5699 24.0691 15.0411C24.1051 15.8254 24.1122 16.0595 24.1122 18.0438C24.1122 20.0281 24.1049 20.2626 24.0691 21.0466C24.0636 21.5177 23.9774 21.9844 23.8142 22.4264C23.6905 22.7468 23.5011 23.0378 23.2582 23.2806C23.0153 23.5234 22.7242 23.7126 22.4038 23.8362C21.9619 23.9997 21.4951 24.086 21.024 24.0911C20.2408 24.1272 20.0055 24.1342 18.0212 24.1342C16.0369 24.1342 15.8024 24.127 15.0194 24.0911M14.9579 10.6579C14.3414 10.6701 13.7314 10.7867 13.154 11.003C12.6603 11.1939 12.212 11.4858 11.8378 11.86C11.4636 12.2342 11.1717 12.6825 10.9808 13.1762C10.7646 13.7536 10.6479 14.3636 10.6357 14.9801C10.5991 15.7723 10.5908 16.0256 10.5908 18.0434C10.5908 20.0613 10.5993 20.3144 10.6357 21.1068C10.6479 21.7233 10.7646 22.3332 10.9808 22.9107C11.1717 23.4043 11.4636 23.8526 11.8378 24.2268C12.212 24.601 12.6603 24.893 13.154 25.0838C13.7314 25.3 14.3414 25.4167 14.9579 25.4289C15.7504 25.465 16.0034 25.4738 18.0212 25.4738C20.0391 25.4738 20.2922 25.4654 21.0845 25.4289C21.701 25.4167 22.311 25.3001 22.8885 25.0838C23.3821 24.893 23.8304 24.601 24.2046 24.2268C24.5788 23.8526 24.8707 23.4043 25.0616 22.9107C25.2781 22.3333 25.3948 21.7233 25.4067 21.1068C25.4428 20.314 25.451 20.0613 25.451 18.0434C25.451 16.0256 25.4426 15.7724 25.4067 14.9801C25.3946 14.3636 25.2779 13.7536 25.0616 13.1762C24.8707 12.6826 24.5789 12.2344 24.2048 11.8602C23.8307 11.486 23.3825 11.194 22.8891 11.003C22.3117 10.7866 21.7017 10.6699 21.0851 10.6579C20.2928 10.6217 20.0396 10.613 18.0222 10.613C16.0047 10.613 15.751 10.6215 14.9583 10.6579" fill="white"/>
</g>
<defs>
<radialGradient id="paint0_radial_455_2164" cx="0" cy="0" r="1" gradientUnits="userSpaceOnUse" gradientTransform="translate(9.29431 27.562) scale(25.3925)">
<stop offset="0.09" stop-color="#FA8F21"/>
<stop offset="0.78" stop-color="#D82D7E"/>
</radialGradient>
<radialGradient id="paint1_radial_455_2164" cx="0" cy="0" r="1" gradientUnits="userSpaceOnUse" gradientTransform="translate(21.8533 26.9196) scale(22.3457)">
<stop offset="0.64" stop-color="#8C3AAA" stop-opacity="0"/>
<stop offset="1" stop-color="#8C3AAA"/>
</radialGradient>
<clipPath id="clip0_455_2164">
<rect width="20" height="20" fill="white" transform="translate(8 8)"/>
</clipPath>
</defs>
</svg>
