<svg width="50" height="50" viewBox="0 0 50 50" fill="none" xmlns="http://www.w3.org/2000/svg">
<g clip-path="url(#clip0_455_1434)">
<path d="M45.0131 26.2198C45.4549 25.5647 45.7131 24.7761 45.7131 23.9282V23.1449C45.7131 20.879 43.8695 19.0354 41.6036 19.0354C40.473 19.0354 39.4477 19.4945 38.7039 20.2359C36.7795 14.5126 31.3636 10.3784 25 10.3784C18.6364 10.3784 13.2205 14.5125 11.2961 20.2359C10.5523 19.4945 9.52705 19.0354 8.39639 19.0354C6.13047 19.0354 4.28691 20.879 4.28691 23.1449V23.9282C4.28691 24.7761 4.54512 25.5647 4.98691 26.2198C2.14229 26.8192 0 29.348 0 32.3684V34.3346C0 34.8738 0.437305 35.3111 0.976562 35.3111H6.05469C6.59395 35.3111 7.03125 34.8738 7.03125 34.3346C7.03125 33.7953 6.59395 33.358 6.05469 33.358H1.95312V32.3684C1.95312 29.9804 3.8959 28.0376 6.28389 28.0376H10.9059C11.2807 29.6861 11.9376 31.2287 12.8239 32.6109L1.68145 43.7534C0.254688 45.1803 0.254688 47.5021 1.68154 48.929C2.39502 49.6425 3.33203 49.9991 4.26924 49.9991C5.20645 49.9991 6.14365 49.6424 6.85713 48.929L13 42.786C13.3813 42.4047 13.3813 41.7863 13 41.4049C12.6186 41.0236 12.0004 41.0236 11.6188 41.4049L5.47607 47.5479C4.81055 48.2133 3.72793 48.2132 3.0625 47.5479C2.39717 46.8825 2.39717 45.7998 3.0625 45.1344L14.0007 34.1963C16.6537 37.3078 20.6001 39.2847 25 39.2847C31.868 39.2847 37.6318 34.4692 39.0941 28.0376H43.7161C46.1041 28.0376 48.0469 29.9804 48.0469 32.3684V33.358H38.8672C38.3279 33.358 37.8906 33.7953 37.8906 34.3346C37.8906 34.8738 38.3279 35.3111 38.8672 35.3111H49.0234C49.5627 35.3111 50 34.8738 50 34.3346V32.3684C50 29.348 47.8577 26.8192 45.0131 26.2198ZM10.5527 23.9283C10.5527 25.1173 9.58545 26.0846 8.39639 26.0846C7.20732 26.0846 6.24004 25.1173 6.24004 23.9283V23.145C6.24004 21.956 7.20732 20.9887 8.39639 20.9887C9.58545 20.9887 10.5527 21.956 10.5527 23.145V23.9283ZM25 37.3315C18.1075 37.3315 12.5 31.724 12.5 24.8315C12.5 17.9391 18.1075 12.3315 25 12.3315C31.8925 12.3315 37.5 17.9391 37.5 24.8315C37.5 31.724 31.8925 37.3315 25 37.3315ZM43.7599 23.9283C43.7599 25.1173 42.7926 26.0846 41.6035 26.0846C40.4145 26.0846 39.4472 25.1173 39.4472 23.9283V23.145C39.4472 21.956 40.4145 20.9887 41.6035 20.9887C42.7926 20.9887 43.7599 21.956 43.7599 23.145V23.9283Z" fill="black"/>
<path d="M25 14.2847C19.1844 14.2847 14.4531 19.0159 14.4531 24.8315C14.4531 27.8501 15.7281 30.5762 17.7674 32.5005C17.8022 32.5382 17.8396 32.5737 17.8807 32.606C19.7582 34.3268 22.2585 35.3784 25 35.3784C27.7415 35.3784 30.2418 34.3267 32.1193 32.606C32.1604 32.5738 32.1978 32.5382 32.2326 32.5005C34.2719 30.5762 35.5469 27.8501 35.5469 24.8315C35.5469 19.016 30.8156 14.2847 25 14.2847ZM25 33.4253C22.9919 33.4253 21.1427 32.7328 19.678 31.5743C20.7156 29.611 22.7377 28.3758 25 28.3758C27.2623 28.3758 29.2844 29.611 30.322 31.5743C28.8573 32.7328 27.0081 33.4253 25 33.4253ZM22.9421 24.3647V23.6061C22.9421 22.4713 23.8652 21.5481 25 21.5481C26.1348 21.5481 27.0579 22.4713 27.0579 23.6061V24.3647C27.0579 25.4995 26.1348 26.4227 25 26.4227C23.8652 26.4227 22.9421 25.4995 22.9421 24.3647ZM31.7505 30.1439C30.8559 28.7165 29.5464 27.6279 28.0138 27.0072C28.6338 26.3009 29.011 25.3764 29.011 24.3648V23.6062C29.011 21.3945 27.2116 19.5951 25 19.5951C22.7884 19.5951 20.989 21.3945 20.989 23.6062V24.3648C20.989 25.3764 21.3661 26.3009 21.9862 27.0072C20.4536 27.628 19.1442 28.7165 18.2495 30.1439C17.0956 28.6809 16.4062 26.8353 16.4062 24.8315C16.4062 20.093 20.2614 16.2378 25 16.2378C29.7386 16.2378 33.5938 20.093 33.5938 24.8315C33.5938 26.8353 32.9044 28.6809 31.7505 30.1439Z" fill="black"/>
<path d="M15.6123 38.793C15.4307 38.6113 15.1787 38.5068 14.9219 38.5068C14.665 38.5068 14.4131 38.6113 14.2314 38.793C14.0499 38.9746 13.9453 39.2266 13.9453 39.4834C13.9453 39.7402 14.0498 39.9922 14.2314 40.1738C14.4131 40.3554 14.665 40.46 14.9219 40.46C15.1787 40.46 15.4307 40.3555 15.6123 40.1738C15.7938 39.9922 15.8984 39.7402 15.8984 39.4834C15.8984 39.2266 15.7939 38.9746 15.6123 38.793Z" fill="black"/>
<path d="M25.0198 0.000976562C24.4806 0.000976562 24.0433 0.438281 24.0433 0.977539V4.3002C24.0433 4.83955 24.4806 5.27676 25.0198 5.27676C25.5591 5.27676 25.9964 4.83945 25.9964 4.3002V0.977539C25.9964 0.438281 25.5591 0.000976562 25.0198 0.000976562Z" fill="black"/>
<path d="M25.7099 6.83008C25.5283 6.64844 25.2772 6.54395 25.0195 6.54395C24.7626 6.54395 24.5107 6.64834 24.3291 6.83008C24.1475 7.01182 24.043 7.26367 24.043 7.52051C24.043 7.77734 24.1474 8.0293 24.3291 8.21084C24.5107 8.39248 24.7626 8.49707 25.0195 8.49707C25.2773 8.49707 25.5283 8.39258 25.7099 8.21084C25.8915 8.0293 25.9961 7.77734 25.9961 7.52051C25.9961 7.26367 25.8916 7.01172 25.7099 6.83008Z" fill="black"/>
<path d="M33.2987 3.83159C32.9173 3.45034 32.2991 3.45034 31.9176 3.83159L30.2012 5.548C29.8198 5.92935 29.8198 6.54771 30.2012 6.92915C30.392 7.11978 30.6418 7.21519 30.8918 7.21519C31.1418 7.21519 31.3916 7.11978 31.5823 6.92915L33.2987 5.21274C33.6801 4.8314 33.6801 4.21304 33.2987 3.83159Z" fill="black"/>
<path d="M19.8152 5.55986L18.0823 3.82695C17.7009 3.4457 17.0827 3.4457 16.7012 3.82695C16.3198 4.2083 16.3198 4.82666 16.7012 5.20811L18.4342 6.94102C18.6249 7.13164 18.8748 7.22705 19.1247 7.22705C19.3746 7.22705 19.6245 7.13164 19.8152 6.94102C20.1966 6.55967 20.1966 5.94131 19.8152 5.55986Z" fill="black"/>
</g>
<defs>
<clipPath id="clip0_455_1434">
<rect width="50" height="50" fill="white"/>
</clipPath>
</defs>
</svg>
