<svg width="78" height="78" viewBox="0 0 78 78" fill="none" xmlns="http://www.w3.org/2000/svg">
<rect width="78" height="78" rx="39" fill="#484ADF" fill-opacity="0.06"/>
<g clip-path="url(#clip0_455_1263)">
<path d="M60.7628 57.6176L57.6435 60.7595C57.3251 61.0802 56.8114 61.0802 56.495 60.7595L47.2857 51.4812C46.9673 51.1645 46.9673 50.6471 47.2857 50.3264L48.108 49.4981L46.3912 47.7707L46.0514 48.111C45.8306 48.3334 45.4752 48.3334 45.2564 48.111L44.3149 47.1627C37.7131 52.4925 28.0468 52.0793 21.9235 45.9134C15.3588 39.299 15.3588 28.5745 21.9235 21.9601C28.4902 15.3476 39.1351 15.3456 45.7017 21.9601C51.7135 28.0139 52.2175 37.5106 47.2232 44.1506L48.2056 45.1402C48.4264 45.3606 48.4264 45.7187 48.2076 45.941L47.8658 46.2814L48.815 47.2395L49.5846 48.0127L50.405 47.1863C50.7234 46.8637 51.237 46.8637 51.5534 47.1863L60.1611 55.8547L60.7627 56.4587C61.0791 56.7794 61.0792 57.2969 60.7628 57.6176ZM43.5512 24.1754C38.2014 18.7857 29.5234 18.7857 24.1708 24.1754C18.8199 29.5661 18.8209 38.3064 24.1708 43.6981C29.5224 49.0868 38.1995 49.0889 43.5512 43.7001C48.901 38.3054 48.901 29.5661 43.5512 24.1754Z" fill="#484ADF"/>
<path d="M34.6144 26.4773L32.962 28.1437C31.8252 29.2858 31.7149 31.1371 32.5235 32.8045L25.5682 39.8065C25.3611 40.0151 25.6385 40.6368 26.1923 41.1936C26.745 41.7504 27.3602 42.0287 27.5692 41.8231L28.2792 41.1001L29.3935 42.2255C29.749 42.5816 30.4707 42.436 31.002 41.8989C31.5381 41.3608 31.6826 40.6368 31.3262 40.2777L30.2158 39.1573L30.5967 38.7697L32.3536 40.5384C32.6583 40.8454 33.2745 40.7204 33.7335 40.2611C34.1905 39.8007 34.3136 39.176 34.0089 38.87L32.254 37.1013L34.3478 34.9943C36.1926 36.3774 38.5345 36.4747 39.8831 35.1152L41.5355 33.4498C43.059 31.9172 42.7406 29.1136 40.8284 27.1875C38.9182 25.2614 36.1359 24.9447 34.6144 26.4773ZM39.7278 30.7859L39.4222 31.0958C38.8274 31.6929 37.7414 31.569 36.9973 30.8184C36.2492 30.0669 36.1271 28.972 36.7189 28.3739L37.0256 28.065C37.6223 27.4689 38.7093 27.5928 39.4553 28.3434C40.1976 29.0949 40.3226 30.1879 39.7278 30.7859Z" fill="#484ADF"/>
</g>
<defs>
<clipPath id="clip0_455_1263">
<rect width="44" height="44" fill="white" transform="translate(17 17)"/>
</clipPath>
</defs>
</svg>
