<svg width="50" height="50" viewBox="0 0 50 50" fill="none" xmlns="http://www.w3.org/2000/svg">
<g clip-path="url(#clip0_610_996)">
<path d="M49.7304 46.1563L46.1857 49.7267C45.8239 50.0911 45.2402 50.0911 44.8806 49.7267L34.4156 39.1832C34.0537 38.8232 34.0537 38.2353 34.4156 37.8709L35.35 36.9296L33.399 34.9667L33.0128 35.3535C32.7619 35.6061 32.3581 35.6061 32.1095 35.3535L31.0396 34.2758C23.5375 40.3323 12.5531 39.8628 5.59486 32.8561C-1.86504 25.3397 -1.86504 13.1529 5.59486 5.63652C13.0569 -1.87772 25.1534 -1.87996 32.6155 5.63652C39.4471 12.5158 40.0198 23.3075 34.3445 30.853L35.4609 31.9775C35.7117 32.2279 35.7117 32.6348 35.4631 32.8875L35.0747 33.2743L36.1534 34.363L37.0279 35.2417L37.9601 34.3026C38.3219 33.936 38.9056 33.936 39.2651 34.3026L49.0466 44.1531L49.7303 44.8395C50.0899 45.2039 50.0899 45.7919 49.7304 46.1563ZM30.1718 8.15388C24.0925 2.0292 14.2311 2.0292 8.14853 8.15388C2.06803 14.2797 2.06912 24.2118 8.14853 30.3387C14.23 36.4623 24.0903 36.4646 30.1718 30.341C36.2511 24.2107 36.2511 14.2797 30.1718 8.15388Z" fill="#2D023D"/>
<path d="M20.0163 10.7696L18.1386 12.6632C16.8468 13.9611 16.7214 16.0649 17.6403 17.9596L9.73654 25.9165C9.50125 26.1534 9.81644 26.8599 10.4457 27.4927C11.0738 28.1254 11.7729 28.4417 12.0105 28.208L12.8172 27.3864L14.0835 28.6652C14.4874 29.07 15.3076 28.9045 15.9113 28.2941C16.5206 27.6826 16.6848 26.86 16.2797 26.4519L15.0179 25.1787L15.4508 24.7382L17.4472 26.7481C17.7934 27.097 18.4937 26.9549 19.0153 26.433C19.5347 25.9098 19.6745 25.1999 19.3283 24.8522L17.334 22.8424L19.7134 20.448C21.8097 22.0197 24.471 22.1303 26.0035 20.5854L27.8812 18.6929C29.6125 16.9513 29.2507 13.7654 27.0777 11.5766C24.907 9.38789 21.7454 9.02802 20.0163 10.7696ZM25.827 15.6658L25.4797 16.0179C24.8038 16.6964 23.5698 16.5556 22.7242 15.7027C21.8741 14.8487 21.7354 13.6045 22.4078 12.9249L22.7563 12.5738C23.4344 11.8964 24.6696 12.0372 25.5174 12.8902C26.3608 13.7442 26.5029 14.9861 25.827 15.6658Z" fill="#2D023D"/>
</g>
<defs>
<clipPath id="clip0_610_996">
<rect width="50" height="50" fill="white"/>
</clipPath>
</defs>
</svg>
