<svg width="78" height="78" viewBox="0 0 78 78" fill="none" xmlns="http://www.w3.org/2000/svg">
<rect width="78" height="78" rx="39" fill="#F3931B" fill-opacity="0.06"/>
<g clip-path="url(#clip0_455_1279)">
<path d="M30.1862 37.6605C30.1862 42.8639 34.4043 47.0821 39.6077 47.0821C44.8111 47.0821 49.0293 42.8639 49.0293 37.6605C49.0293 32.4571 44.8111 28.239 39.6077 28.239C34.4069 28.2448 30.192 32.4597 30.1862 37.6605ZM39.6077 38.2559C38.0443 38.2646 36.7195 37.1067 36.5194 35.556C36.3194 34.0056 37.3068 32.5489 38.8214 32.1609V31.3644C38.8214 31.0037 39.1136 30.7115 39.4744 30.7115C39.8351 30.7115 40.1273 31.0037 40.1273 31.3644V32.1212C41.6088 32.3719 42.6902 33.6599 42.6807 35.1628C42.6807 35.5192 42.3918 35.8081 42.0354 35.8081C41.6791 35.8081 41.3901 35.5192 41.3901 35.1628C41.3891 34.1765 40.5889 33.3779 39.6026 33.3789C38.6163 33.38 37.8176 34.1805 37.8191 35.1668C37.8202 36.1528 38.6207 36.9515 39.607 36.95C41.2061 36.9591 42.5342 38.1863 42.6694 39.78C42.8046 41.3733 41.702 42.8067 40.1273 43.0851V43.8633C40.1273 44.224 39.8351 44.5163 39.4744 44.5163C39.1136 44.5163 38.8214 44.224 38.8214 43.8633V43.045C37.4569 42.6846 36.5034 41.4546 36.4943 40.0434C36.4943 39.6787 36.7901 39.3828 37.1549 39.3828C37.5196 39.3828 37.8154 39.6787 37.8154 40.0434C37.8176 40.9554 38.5048 41.7202 39.4113 41.8196C39.4448 41.8142 39.4791 41.8116 39.5133 41.8113C39.5625 41.8113 39.6114 41.8171 39.6595 41.828C40.6388 41.804 41.416 40.9958 41.4018 40.0164C41.3876 39.0367 40.5871 38.2515 39.6077 38.2559Z" fill="#F3931B"/>
<path d="M54.7282 51.5743C54.7235 51.5768 54.7184 51.5794 54.7129 51.5819L48.6518 54.4454C48.7171 54.781 48.7455 55.1224 48.7364 55.4641C48.7269 55.8176 48.4376 56.0992 48.0842 56.0992C48.078 56.0992 48.0718 56.0992 48.0656 56.0992L39.1949 55.8551C38.8342 55.8452 38.55 55.545 38.5599 55.1843C38.5697 54.8236 38.8703 54.5394 39.2307 54.5492L47.3846 54.7737C47.1143 53.1935 45.7669 52.0231 44.1644 51.9765L38.7683 51.8282C37.7025 51.7976 36.6576 51.5276 35.7106 51.0383L35.1615 50.7541C32.4649 49.3491 29.2156 49.532 26.6938 51.231L26.4778 59.0811L27.4051 58.5845C28.3265 58.089 29.4047 57.9709 30.4118 58.2555L39.5695 60.826C41.3345 61.1875 43.1686 60.9827 44.8104 60.2401L57.4977 52.0333C56.7737 51.2922 55.6526 51.1061 54.7282 51.5743Z" fill="#F3931B"/>
<path d="M20.5183 60.4445L20.84 48.765L25.4521 48.8922L25.1303 60.5717L20.5183 60.4445Z" fill="#F3931B"/>
<path d="M40.2207 24.7419V17.6529C40.2207 17.2922 39.9284 17 39.5677 17C39.207 17 38.9148 17.2922 38.9148 17.6529V24.7419C38.9148 25.1026 39.207 25.3948 39.5677 25.3948C39.9284 25.3948 40.2207 25.1026 40.2207 24.7419Z" fill="#F3931B"/>
<path d="M45.8171 24.7419V21.3839C45.8171 21.0232 45.5249 20.731 45.1642 20.731C44.8034 20.731 44.5112 21.0232 44.5112 21.3839V24.7419C44.5112 25.1026 44.8034 25.3948 45.1642 25.3948C45.5249 25.3948 45.8171 25.1026 45.8171 24.7419Z" fill="#F3931B"/>
<path d="M34.6241 24.7419V21.3839C34.6241 21.0232 34.3319 20.731 33.9712 20.731C33.6105 20.731 33.3182 21.0232 33.3182 21.3839V24.7419C33.3182 25.1026 33.6105 25.3948 33.9712 25.3948C34.3319 25.3948 34.6241 25.1026 34.6241 24.7419Z" fill="#F3931B"/>
</g>
<defs>
<clipPath id="clip0_455_1279">
<rect width="44" height="44" fill="white" transform="translate(17 17)"/>
</clipPath>
</defs>
</svg>
