<svg width="78" height="78" viewBox="0 0 78 78" fill="none" xmlns="http://www.w3.org/2000/svg">
<rect width="78" height="78" rx="39" fill="#46C2D3" fill-opacity="0.06"/>
<path d="M48.0765 56.514L42.8693 51.3068C42.2102 50.6477 41.1418 50.6477 40.4827 51.3068L39.9886 51.801L39.2244 51.0369C41.189 48.6922 42.375 45.6733 42.375 42.375C42.375 34.9192 36.3308 28.875 28.875 28.875C21.4192 28.875 15.375 34.9192 15.375 42.375C15.375 49.8308 21.4192 55.875 28.875 55.875C32.1733 55.875 35.1922 54.689 37.5369 52.7244L38.3011 53.4885L37.8068 53.9827C37.1477 54.6418 37.1477 55.7102 37.8068 56.3693L43.014 61.5765C44.412 62.9745 46.6785 62.9745 48.0765 61.5765C49.4745 60.1785 49.4745 57.912 48.0765 56.514ZM28.875 54.1875C22.3613 54.1875 17.0625 48.8888 17.0625 42.375C17.0625 35.8612 22.3613 30.5625 28.875 30.5625C35.3888 30.5625 40.6875 35.8612 40.6875 42.375C40.6875 48.8888 35.3888 54.1875 28.875 54.1875Z" fill="#46C2D3"/>
<path d="M28.875 32.25C23.2925 32.25 18.75 36.7924 18.75 42.375C18.75 43.5332 18.9552 44.6421 19.3149 45.6794L24.0597 40.9347C24.3893 40.6051 24.9232 40.6051 25.2528 40.9347L28.0312 43.7131L32.7444 39H31.4062C30.9399 39 30.5625 38.6226 30.5625 38.1562C30.5625 37.6899 30.9399 37.3125 31.4062 37.3125H34.7812C35.2476 37.3125 35.625 37.6899 35.625 38.1562V41.5312C35.625 41.9976 35.2476 42.375 34.7812 42.375C34.3149 42.375 33.9375 41.9976 33.9375 41.5312V40.1931L28.6278 45.5028C28.2982 45.8324 27.7643 45.8324 27.4347 45.5028L24.6562 42.7244L20.0532 47.3274C21.791 50.4101 25.0915 52.5 28.875 52.5C34.4576 52.5 39 47.9576 39 42.375C39 36.7924 34.4576 32.25 28.875 32.25Z" fill="#46C2D3"/>
</svg>
