<svg width="51" height="50" viewBox="0 0 51 50" fill="none" xmlns="http://www.w3.org/2000/svg">
<path d="M33.4921 41.2167L28.6706 36.3952C28.0603 35.7849 27.0711 35.7849 26.4608 36.3952L26.0032 36.8527L25.2957 36.1453C27.1147 33.9743 28.2129 31.179 28.2129 28.125C28.2129 21.2214 22.6164 15.625 15.7129 15.625C8.80934 15.625 3.21289 21.2214 3.21289 28.125C3.21289 35.0286 8.80934 40.625 15.7129 40.625C18.7668 40.625 21.5622 39.5268 23.7332 37.7078L24.4407 38.4152L23.9831 38.8729C23.3728 39.4832 23.3728 40.4724 23.9831 41.0827L28.8046 45.9042C30.099 47.1986 32.1976 47.1986 33.4921 45.9042C34.7865 44.6097 34.7865 42.5111 33.4921 41.2167ZM15.7129 39.0625C9.68166 39.0625 4.77539 34.1563 4.77539 28.125C4.77539 22.0937 9.68166 17.1875 15.7129 17.1875C21.7442 17.1875 26.6504 22.0937 26.6504 28.125C26.6504 34.1563 21.7442 39.0625 15.7129 39.0625Z" fill="black"/>
<path d="M15.7129 18.75C10.5439 18.75 6.33789 22.9559 6.33789 28.125C6.33789 29.1974 6.52786 30.2241 6.86098 31.1847L11.2543 26.7914C11.5594 26.4862 12.0538 26.4862 12.359 26.7914L14.9316 29.364L19.2957 25H18.0566C17.6248 25 17.2754 24.6506 17.2754 24.2188C17.2754 23.7869 17.6248 23.4375 18.0566 23.4375H21.1816C21.6135 23.4375 21.9629 23.7869 21.9629 24.2188V27.3438C21.9629 27.7756 21.6135 28.125 21.1816 28.125C20.7498 28.125 20.4004 27.7756 20.4004 27.3438V26.1047L15.484 31.0211C15.1788 31.3263 14.6844 31.3263 14.3793 31.0211L11.8066 28.4485L7.54457 32.7106C9.15361 35.5649 12.2097 37.5 15.7129 37.5C20.882 37.5 25.0879 33.2941 25.0879 28.125C25.0879 22.9559 20.882 18.75 15.7129 18.75Z" fill="black"/>
</svg>
