<svg width="35" height="29" viewBox="0 0 35 29" fill="none" xmlns="http://www.w3.org/2000/svg">
<path d="M28.8994 12.1517H27.5141L22.5277 12.2805C22.5026 12.28 22.4781 12.2731 22.4565 12.2603C22.4349 12.2476 22.417 12.2294 22.4045 12.2077L14.9164 1.02882C14.8037 0.856858 14.65 0.715636 14.4691 0.617867C14.2882 0.520099 14.0859 0.468855 13.8803 0.46875L12.0601 0.46875C11.6307 0.46875 11.4851 0.898134 11.6382 1.27898L15.4839 12.2731C15.4933 12.296 15.497 12.3209 15.4946 12.3456C15.4922 12.3703 15.4839 12.3941 15.4703 12.4148C15.4567 12.4356 15.4383 12.4527 15.4166 12.4648C15.3949 12.4769 15.3706 12.4834 15.3458 12.484L5.93855 12.6035C5.84104 12.6075 5.74398 12.5882 5.65537 12.5473C5.56676 12.5064 5.48914 12.4451 5.42889 12.3683L2.58749 8.92014C2.47496 8.77592 2.3315 8.65878 2.16769 8.57736C2.00388 8.49594 1.82389 8.45231 1.64098 8.44969H0.334158C0.28183 8.44505 0.229187 8.45388 0.181232 8.47533C0.133278 8.49678 0.0916051 8.53013 0.0601754 8.57223C0.0287457 8.61432 0.00860328 8.66375 0.00166275 8.71583C-0.00527777 8.7679 0.00121417 8.82088 0.0205215 8.86973L1.55137 14.1437C1.6665 14.4377 1.6665 14.7644 1.55137 15.0585L0.0205215 20.3361C0.00517769 20.3824 0.00100458 20.4315 0.00834445 20.4797C0.0156843 20.5278 0.0343281 20.5735 0.0627469 20.613C0.0911657 20.6526 0.12855 20.6848 0.171834 20.7071C0.215119 20.7294 0.26307 20.7411 0.311756 20.7413H1.63911C1.82582 20.7405 2.00998 20.6979 2.178 20.6164C2.34602 20.535 2.49362 20.4169 2.60989 20.2708L5.50917 16.7573C5.57039 16.6818 5.64825 16.6214 5.73666 16.5809C5.82507 16.5405 5.92164 16.521 6.01883 16.524L15.3701 16.7349C15.3949 16.7355 15.4192 16.7421 15.4408 16.7541C15.4625 16.7662 15.481 16.7833 15.4946 16.8041C15.5082 16.8249 15.5165 16.8486 15.5189 16.8733C15.5213 16.898 15.5176 16.9229 15.5082 16.9459L11.6307 27.9232C11.4776 28.3189 11.6307 28.7334 12.0526 28.7334H13.8728C14.0787 28.7348 14.2816 28.6842 14.4627 28.5863C14.6439 28.4884 14.7973 28.3464 14.9089 28.1733L22.4045 16.9758C22.418 16.9537 22.437 16.9355 22.4595 16.9228C22.482 16.91 22.5074 16.9032 22.5333 16.9029L27.5197 17.0318H28.905C32.3139 17.0318 34.459 15.9303 34.459 14.6048C34.459 13.2793 32.299 12.1517 28.8994 12.1517Z" fill="#2D023D"/>
</svg>
