<svg width="78" height="78" viewBox="0 0 78 78" fill="none" xmlns="http://www.w3.org/2000/svg">
<rect width="78" height="78" rx="39" fill="#05ECC2" fill-opacity="0.06"/>
<g clip-path="url(#clip0_499_1826)">
<path d="M45.0001 62.0481C39.3455 63.5268 33.3535 62.8651 28.1282 60.1842C22.8663 57.4846 18.8172 52.9478 16.727 47.4099C14.7912 42.281 14.6659 36.8217 16.3646 31.6221C17.6241 27.7667 19.86 24.2911 22.798 21.5539L22.2562 26.051L25.4137 26.4317L26.6083 16.5187L16.8198 15.3614L16.4463 18.5198L20.834 19.0387C17.4041 22.1695 14.7972 26.1791 13.3416 30.6346C12.4077 33.4933 11.9596 36.4611 12.0098 39.4557C12.0618 42.5543 12.6478 45.6084 13.7517 48.5333C16.121 54.8108 20.7112 59.9537 26.6767 63.0141C30.5323 64.992 34.7564 66.0001 39.0047 66.0001C41.2821 66.0001 43.5669 65.7103 45.805 65.1249L45.0001 62.0481Z" fill="#05ECC2"/>
<path d="M64.3623 48.224C66.5737 42.1701 66.5362 35.5101 64.2568 29.4708C61.7885 22.9309 56.9574 17.6688 50.6533 14.6537C44.3694 11.6482 37.2695 11.1787 30.6613 13.3317L31.6465 16.3556C37.4745 14.4568 43.7371 14.8714 49.281 17.5228C54.842 20.1825 59.1037 24.8245 61.2812 30.594C63.2916 35.9208 63.3249 41.7944 61.3749 47.1329C59.8328 51.3544 57.1343 55.0374 53.6326 57.7658L54.2221 52.8747L51.0646 52.4941L49.8698 62.4071L59.6583 63.5645L60.0317 60.4061L56.0178 59.9314C59.7779 56.8757 62.6787 52.8329 64.3623 48.224Z" fill="#05ECC2"/>
<path d="M47.8471 33.2549C48.7639 32.1033 49.3137 30.6471 49.3137 29.0642C49.3137 25.3469 46.2895 22.3228 42.5723 22.3228C40.0592 22.3228 37.8643 23.7061 36.7051 25.7504C41.8436 26.1181 45.9121 30.4157 45.9121 35.6462C45.9121 36.6697 45.7512 37.6838 45.443 38.6504C46.487 39.452 47.4058 40.4163 48.1675 41.5175C48.6542 42.2212 49.0633 42.9658 49.3952 43.7398L53.9636 43.734V42.1458C53.9636 38.0951 51.4205 34.6277 47.8471 33.2549Z" fill="#05ECC2"/>
<path d="M41.2311 39.8802C42.1687 38.722 42.7318 37.2489 42.7318 35.6462C42.7318 31.929 39.7076 28.9048 35.9903 28.9048C32.2731 28.9048 29.2489 31.929 29.2489 35.6462C29.2489 37.2523 29.8144 38.7283 30.7554 39.8876C27.2505 41.2938 24.7687 44.7262 24.7687 48.7279V50.3181H47.2362V48.7279C47.2363 44.7194 44.7458 41.2816 41.2311 39.8802Z" fill="#05ECC2"/>
</g>
<defs>
<clipPath id="clip0_499_1826">
<rect width="54" height="54" fill="white" transform="translate(12 12)"/>
</clipPath>
</defs>
</svg>
