<svg width="22" height="22" viewBox="0 0 22 22" fill="none" xmlns="http://www.w3.org/2000/svg">
<g clip-path="url(#clip0_455_1174)">
<path d="M6.0271 6.17111L4.20775 6.31167C3.7015 6.3508 3.25061 6.61613 2.97064 7.03961L0.872425 10.213C0.660089 10.5342 0.626333 10.9361 0.782068 11.2882C0.937844 11.6403 1.25797 11.8856 1.63839 11.9446L3.30422 12.2025C3.69391 10.1345 4.62676 8.07164 6.0271 6.17111Z" fill="white"/>
<path d="M9.98279 18.8811L10.2408 20.5469C10.2998 20.9273 10.5451 21.2474 10.8971 21.4032C11.0436 21.468 11.1986 21.5 11.3529 21.5C11.5696 21.5 11.7848 21.4368 11.9723 21.3128L15.1458 19.2146C15.5693 18.9346 15.8346 18.4837 15.8737 17.9775L16.0143 16.1582C14.1137 17.5586 12.0508 18.4914 9.98279 18.8811Z" fill="white"/>
<path d="M9.35621 17.7264C9.41405 17.7264 9.47221 17.7217 9.53024 17.712C10.3966 17.5671 11.2317 17.3231 12.0283 17.0037L5.18164 10.157C4.86221 10.9535 4.61817 11.7886 4.4733 12.6551C4.41621 12.9966 4.53076 13.3445 4.77558 13.5894L8.59591 17.4097C8.79918 17.6129 9.07354 17.7264 9.35621 17.7264Z" fill="white"/>
<path d="M20.0108 9.8106C21.6862 6.57145 21.7482 3.14848 21.6607 1.54314C21.6307 0.993086 21.1922 0.55455 20.6421 0.524568C20.3807 0.510295 20.0709 0.5 19.7217 0.5C17.9266 0.5 15.0863 0.77189 12.3746 2.17449C10.2196 3.28916 7.39375 5.74356 5.72656 8.96908C5.74625 8.98447 5.76549 9.00079 5.78361 9.01892L13.1664 16.4017C13.1845 16.4198 13.2008 16.439 13.2162 16.4587C16.4417 14.7915 18.8961 11.9656 20.0108 9.8106ZM12.8954 4.9395C14.0948 3.74017 16.0463 3.74004 17.2457 4.9395C17.8267 5.52048 18.1467 6.293 18.1467 7.11466C18.1467 7.93632 17.8267 8.70884 17.2457 9.28983C16.6461 9.88943 15.8582 10.1893 15.0706 10.1894C14.2827 10.1894 13.4952 9.88959 12.8954 9.28983C12.3144 8.70884 11.9944 7.93632 11.9944 7.11466C11.9944 6.293 12.3144 5.52048 12.8954 4.9395Z" fill="white"/>
<path d="M13.7656 8.41975C14.4852 9.13937 15.6562 9.13941 16.3758 8.41975C16.7244 8.07112 16.9164 7.60765 16.9164 7.11464C16.9164 6.62163 16.7244 6.15815 16.3758 5.80956C16.016 5.44973 15.5433 5.26984 15.0707 5.26984C14.5981 5.26984 14.1254 5.44973 13.7656 5.80956C13.417 6.15815 13.225 6.62163 13.225 7.11464C13.225 7.60765 13.417 8.07116 13.7656 8.41975Z" fill="white"/>
<path d="M1.31301 17.8059C1.47047 17.8059 1.62793 17.7459 1.74802 17.6257L3.75668 15.6171C3.99695 15.3768 3.99695 14.9873 3.75668 14.747C3.51645 14.5067 3.12688 14.5067 2.88661 14.747L0.877956 16.7557C0.637687 16.9959 0.637687 17.3855 0.877956 17.6257C0.998091 17.7459 1.15555 17.8059 1.31301 17.8059Z" fill="white"/>
<path d="M5.59752 16.5878C5.35729 16.3475 4.96772 16.3475 4.72745 16.5878L0.865627 20.4496C0.625357 20.6899 0.625357 21.0794 0.865627 21.3197C0.985762 21.4398 1.14322 21.4999 1.30068 21.4999C1.45814 21.4999 1.6156 21.4398 1.73569 21.3196L5.59748 17.4579C5.83779 17.2176 5.83779 16.8281 5.59752 16.5878Z" fill="white"/>
<path d="M6.56821 18.4286L4.5596 20.4373C4.31933 20.6775 4.31933 21.0671 4.5596 21.3073C4.67973 21.4275 4.83719 21.4876 4.99461 21.4876C5.15203 21.4876 5.30953 21.4275 5.42962 21.3073L7.43828 19.2987C7.67855 19.0584 7.67855 18.6689 7.43828 18.4286C7.19805 18.1883 6.80848 18.1883 6.56821 18.4286Z" fill="white"/>
</g>
<defs>
<clipPath id="clip0_455_1174">
<rect width="21" height="21" fill="white" transform="translate(0.685303 0.5)"/>
</clipPath>
</defs>
</svg>
