<svg width="29" height="30" viewBox="0 0 29 30" fill="none" xmlns="http://www.w3.org/2000/svg">
<path d="M24.1666 19.2291V14.9999C24.1666 14.2749 23.6832 13.7916 22.9582 13.7916C22.2332 13.7916 21.7499 14.2749 21.7499 14.9999V19.2291C21.7499 20.9207 20.4207 22.2499 18.7291 22.2499H10.2708C8.57908 22.2499 7.24992 20.9207 7.24992 19.2291V10.7708C7.24992 9.07908 8.57908 7.74992 10.2708 7.74992H14.4999C15.2249 7.74992 15.7083 7.26658 15.7083 6.54159C15.7083 5.81659 15.2249 5.33325 14.4999 5.33325H10.2708C7.24992 5.33325 4.83325 7.74992 4.83325 10.7708V19.2291C4.83325 22.2499 7.24992 24.6666 10.2708 24.6666H18.7291C21.7499 24.6666 24.1666 22.2499 24.1666 19.2291Z" fill="black"/>
<path d="M25.3751 11.375V5.33333C25.3751 5.2125 25.3751 4.97083 25.2542 4.85C25.1334 4.60833 24.8917 4.36667 24.6501 4.24583C24.5292 4.125 24.2876 4.125 24.1667 4.125H18.3667C17.6417 4.125 17.1584 4.60833 17.1584 5.33333C17.1584 6.05833 17.6417 6.54167 18.3667 6.54167H21.2667L13.6542 14.1542C13.1709 14.6375 13.1709 15.3625 13.6542 15.8458C13.8959 16.0875 14.2584 16.2083 14.5001 16.2083C14.7417 16.2083 15.1042 16.0875 15.3459 15.8458L22.9584 8.23333V11.375C22.9584 12.1 23.4417 12.5833 24.1667 12.5833C24.8917 12.5833 25.3751 12.1 25.3751 11.375Z" fill="black"/>
</svg>
