<svg width="50" height="50" viewBox="0 0 50 50" fill="none" xmlns="http://www.w3.org/2000/svg">
<g clip-path="url(#clip0_455_1833)">
<path d="M43.1019 0H14.8364C13.3457 0 12.133 1.2127 12.133 2.70342V3.96621H10.8673C9.37656 3.96621 8.16387 5.17891 8.16387 6.66963V7.93232H6.89893C5.40781 7.93232 4.19482 9.14482 4.19482 10.6352V47.2974C4.19482 48.7877 5.40781 50.0002 6.89893 50.0002H35.163C36.654 50.0002 37.8671 48.7877 37.8671 47.2974V46.034H39.1328C40.6235 46.034 41.8362 44.8213 41.8362 43.3306V42.0679H43.102C44.5927 42.0679 45.8054 40.8551 45.8054 39.3644V2.70342C45.8052 1.2127 44.5925 0 43.1019 0ZM35.163 48.0469H6.89893C6.48486 48.0469 6.14795 47.7106 6.14795 47.2972V10.635C6.14795 10.2216 6.48486 9.88525 6.89893 9.88525H28.7463V16.0709C28.7463 16.6102 29.1836 17.0475 29.7229 17.0475H35.914V47.2972C35.9139 47.7106 35.5771 48.0469 35.163 48.0469ZM34.5315 15.0943H30.6994V11.265L34.5315 15.0943ZM39.883 43.3305C39.883 43.7448 39.5471 44.0808 39.1327 44.0808H37.867V16.0758C37.867 16.0755 37.8667 16.0575 37.8662 16.0293C37.862 15.7914 37.7642 15.5644 37.5961 15.3958C37.591 15.3905 30.4131 8.21787 30.4131 8.21787C30.4121 8.2169 30.4014 8.20684 30.3845 8.19092C30.2054 8.02334 29.9684 7.93047 29.723 7.93213H10.117V6.66943C10.117 6.25508 10.4529 5.91914 10.8673 5.91914H39.1327C39.5471 5.91914 39.883 6.25508 39.883 6.66943V43.3305ZM43.8521 39.3644C43.8521 39.778 43.5155 40.1147 43.1018 40.1147H41.836V6.66953C41.836 5.17881 40.6233 3.96611 39.1326 3.96611H14.0861V2.70342C14.0861 2.28975 14.4228 1.95312 14.8364 1.95312H43.1018C43.5154 1.95312 43.8521 2.28965 43.8521 2.70342V39.3644Z" fill="black"/>
</g>
<defs>
<clipPath id="clip0_455_1833">
<rect width="50" height="50" fill="white"/>
</clipPath>
</defs>
</svg>
